<?xml version="1.0" encoding="UTF-8"?>
<svg width="485px" height="230px" viewBox="0 0 485 230" version="1.1" xmlns="http://www.w3.org/2000/svg" xmlns:xlink="http://www.w3.org/1999/xlink">
    <!-- Generator: Sketch 51.3 (57544) - http://www.bohemiancoding.com/sketch -->
    <title>Cities</title>
    <desc>Created with Sketch.</desc>
    <defs></defs>
    <g id="Page-1" stroke="none" stroke-width="1" fill="none" fill-rule="evenodd">
        <g id="isems" transform="translate(270.000000, 0.000000)" fill="#000000" fill-rule="nonzero">
            <g id="ISEMS">
                <g id="noun_solar-panel_1832989" transform="translate(0.000000, 30.405406)">
                    <path d="M46.7354754,4.04237854e-14 L21.5551475,4.04237854e-14 C21.2737466,-0.000278794486 21.0136185,0.152264813 20.872918,0.400071124 L20.6966557,0.710526316 L19.879082,2.1419808 L12.6956066,14.8026316 C12.5550449,15.0501933 12.555043,15.3552015 12.6956015,15.6027651 C12.8361602,15.8503286 13.0959257,16.0028377 13.3770492,16.002845 L27.5409836,16.002845 L27.5409836,27.2048364 L0,27.2048364 L0,28.8051209 L47.2131148,28.8051209 L47.2131148,19.2034139 C47.2131148,18.7615076 46.8608142,18.4032717 46.4262295,18.4032717 L45.6393443,18.4032717 L45.6393443,17.6031294 L44.0655738,17.6031294 L44.0655738,18.4032717 L40.1311475,18.4032717 L40.1311475,17.6031294 L38.557377,17.6031294 L38.557377,18.4032717 L37.7704918,18.4032717 C37.3359071,18.4032717 36.9836066,18.7615076 36.9836066,19.2034139 L36.9836066,27.2048364 L32.2622951,27.2048364 L32.2622951,16.002845 L38.557377,16.002845 C38.8384969,16.0028377 39.0982597,15.8503324 39.2388197,15.6027738 L47.416918,1.20021337 C47.5574797,0.952651642 47.5574816,0.647643469 47.4169231,0.400079925 C47.2763644,0.152516381 47.0165989,7.26186399e-06 46.7354754,4.04237854e-14 Z M31.4754098,14.4025604 L27.3300984,14.4025604 L29.1478033,11.2019915 L33.6251803,11.2019915 L31.8074754,14.4025604 L31.4754098,14.4025604 Z M34.5340328,9.601707 L30.0590164,9.601707 L31.8767213,6.40113798 L36.3540984,6.40113798 L34.5340328,9.601707 Z M38.1686557,6.40113798 L42.6491803,6.40113798 L40.8322623,9.601707 L36.3540984,9.601707 L38.1686557,6.40113798 Z M32.7824262,4.80085348 L34.5993443,1.6002845 L39.0767213,1.6002845 L37.2598033,4.80085348 L32.7824262,4.80085348 Z M30.9647213,4.80085348 L26.4873443,4.80085348 L28.3042623,1.6002845 L32.7816393,1.6002845 L30.9647213,4.80085348 Z M24.6696393,4.80085348 L20.1922623,4.80085348 L22.0091803,1.6002845 L26.4865574,1.6002845 L24.6696393,4.80085348 Z M19.2834098,6.40113798 L23.7639344,6.40113798 L21.9470164,9.601707 L17.4688525,9.601707 L19.2834098,6.40113798 Z M25.5784918,6.40113798 L30.0590164,6.40113798 L28.2420984,9.601707 L23.7639344,9.601707 L25.5784918,6.40113798 Z M27.3300984,11.2019915 L25.5123934,14.4025604 L21.0350164,14.4025604 L22.8527213,11.2019915 L27.3300984,11.2019915 Z M35.4428852,11.2019915 L39.9202623,11.2019915 L38.1025574,14.4025604 L33.6251803,14.4025604 L35.4428852,11.2019915 Z M43.5548852,4.80085348 L39.0775082,4.80085348 L40.8944262,1.6002845 L45.3718033,1.6002845 L43.5548852,4.80085348 Z M16.5576393,11.2019915 L21.0350164,11.2019915 L19.2173115,14.4025604 L14.7399344,14.4025604 L16.5576393,11.2019915 Z M38.557377,20.0035562 L45.6393443,20.0035562 L45.6393443,27.2048364 L38.557377,27.2048364 L38.557377,20.0035562 Z M30.6885246,27.2048364 L29.1147541,27.2048364 L29.1147541,16.002845 L30.6885246,16.002845 L30.6885246,27.2048364 Z" id="Shape"></path>
                    <path d="M43.2786885,23.2041252 L42.3879344,23.2041252 L43.1464918,22.0479197 L41.8371148,21.1597618 L40.2633443,23.5601885 C40.1022435,23.8057191 40.0871592,24.1214951 40.2240991,24.3817466 C40.3610392,24.641998 40.6277611,24.8044539 40.9180328,24.8044097 L41.8087869,24.8044097 L41.0502295,25.9606152 L42.3596066,26.8487731 L43.933377,24.4483464 C44.0944778,24.2028158 44.1095622,23.8870397 43.9726222,23.6267883 C43.8356821,23.3665368 43.5689602,23.204081 43.2786885,23.2041252 Z" id="Shape"></path>
                </g>
                <g id="noun_wifi_1101870" transform="translate(0.786885, 0.000000)">
                    <path d="M8.65578586,4.69290238 L8.65578586,57.6102418 L9.99877188,57.6102418 L10.229429,4.95400731 C10.2324432,4.69996542 10.1492383,4.45528541 9.99877188,4.27571588 C9.8483055,4.09614635 9.64339412,3.99698264 9.43072525,4.00081852 C8.90999575,4.11638094 8.65168265,4.34707556 8.65578586,4.69290238 Z" id="Shape"></path>
                    <path d="M11.7017437,3.20057206 C11.3967631,3.20149098 11.1288557,3.40377694 11.0437524,3.69739434 C10.9586492,3.99101174 11.0767032,4.3057399 11.3336977,4.47037909 C11.5137512,4.58937257 11.6821884,4.72598335 11.8405213,4.88223401 C11.8412431,4.88292313 11.8419305,4.88361224 11.8426522,4.88430137 C13.0512687,6.09241164 13.1088006,7.9836 12.0301635,9.26160403 C11.8681786,9.44914539 11.8192433,9.70950324 11.9020381,9.94328787 C11.9848329,10.1770725 12.1865777,10.3481968 12.4302578,10.3913352 C12.673938,10.4344736 12.9219388,10.3429674 13.0795879,10.1517483 C14.611469,8.33669724 14.5190193,5.61041484 12.8101091,3.90532287 C12.8093544,3.90463206 12.8085984,3.90394295 12.8078408,3.90325551 C12.5866145,3.68451907 12.3468639,3.48937115 12.0902043,3.31976883 C11.9756539,3.24170485 11.8402519,3.20015757 11.7017437,3.20057206 Z" id="Shape"></path>
                    <path d="M13.2984323,1.60051956 C12.9893344,1.60839171 12.7191325,1.80648664 12.624843,2.09435269 C12.5305534,2.38221875 12.6327995,2.69689289 12.8797334,2.8788075 C13.0759212,3.02762169 13.2651283,3.18750365 13.43612,3.35551405 C13.4370626,3.35646441 13.4380079,3.35741221 13.438956,3.35835741 C15.5524834,5.41181907 15.6197457,8.67580792 13.6575767,10.8083967 C13.4794154,10.9965447 13.4187022,11.2639006 13.4986898,11.508069 C13.5786774,11.7522373 13.7869704,11.9353806 14.043794,11.9873559 C14.3006177,12.0393313 14.5661733,11.9520845 14.7387548,11.7590304 C17.2076091,9.07577226 17.1163141,4.93012243 14.4668696,2.35296419 L14.4668696,2.35285757 C14.4659243,2.35179131 14.4649062,2.35108047 14.4639246,2.35001421 C14.241159,2.1314276 14.0063954,1.93429056 13.7710864,1.75579883 C13.637151,1.65117791 13.4697084,1.59618258 13.2983231,1.60052311 L13.2984323,1.60051956 Z" id="Shape"></path>
                    <path d="M14.9156358,6.899263e-06 C14.5973972,-0.00132297893 14.3130844,0.189715907 14.2068803,0.476242547 C14.1006762,0.762769187 14.1958122,1.08210747 14.4440423,1.27231226 C14.6511572,1.43563553 14.8472336,1.60044911 15.026621,1.77265707 C15.0274296,1.77349283 15.0282404,1.77432673 15.0290532,1.77515879 C18.1084617,4.70377344 18.1847219,9.37798745 15.2617629,12.3934119 C15.0748488,12.5799493 15.007794,12.8482647 15.0863485,13.0953212 C15.1649031,13.3423776 15.3768547,13.5297677 15.6408111,13.585531 C15.9047675,13.6412943 16.179694,13.5567619 16.3600148,13.3643953 C19.8173941,9.79763384 19.7226488,4.22424298 16.087566,0.76464098 C16.0867427,0.763926201 16.0859196,0.763211423 16.0850963,0.762139255 C15.8591221,0.545418477 15.6263751,0.351020224 15.3969583,0.17010269 C15.2625236,0.0609921336 15.0920527,0.000748966213 14.9156358,6.89926292e-06 Z" id="Shape"></path>
                    <path d="M6.79035698,3.32271383 C6.5427761,3.48889608 6.30110884,3.68148096 6.07673544,3.90315489 C4.36869903,5.61016429 4.27212152,8.33427063 5.80501879,10.1490225 C5.96227128,10.3416834 6.21103593,10.4343954 6.45575653,10.3915458 C6.70047713,10.3486963 6.90309648,10.1769486 6.98578384,9.94227529 C7.0684712,9.70760187 7.01836763,9.44649742 6.85471906,9.25925811 C5.7762759,7.98249853 5.83671849,6.09155589 7.04230429,4.8838234 C7.19908374,4.72914107 7.37319144,4.58958531 7.55579136,4.4670194 C7.81484772,4.29841812 7.92986007,3.97744898 7.83697863,3.68229975 C7.7440972,3.38715052 7.46612468,3.19028119 7.15737903,3.20098484 C7.02594568,3.20564244 6.89857067,3.24785025 6.79035698,3.32271383 Z" id="Shape"></path>
                    <path d="M5.57157227,1.60029086 C5.40779448,1.59961308 5.24858509,1.65307963 5.11976343,1.75201972 C4.87334867,1.93583106 4.64143103,2.13509361 4.42070416,2.34805856 C4.4198664,2.34888592 4.41903072,2.34971529 4.41819713,2.35054667 C1.77194166,4.92761987 1.67574471,9.07499637 4.14409614,11.7597339 C4.31667192,11.9524003 4.58186111,12.0393338 4.83825793,11.9872917 C5.09465474,11.9352497 5.30260123,11.7522816 5.38258066,11.5083527 C5.46256008,11.2644239 5.4022017,10.9972638 5.22458599,10.8090319 C3.26474933,8.6774025 3.33461892,5.41416028 5.44109817,3.36034498 C5.4414615,3.36009617 5.44160683,3.35998953 5.4418975,3.35963409 C5.4424425,3.35927864 5.44295118,3.35856775 5.44349618,3.35821231 C5.62389272,3.18433566 5.80828595,3.02645403 6.00085426,2.88280444 C6.25237902,2.70056393 6.35636089,2.38124095 6.25893461,2.09025295 C6.16150832,1.79926496 5.88456658,1.60199998 5.57157227,1.60064631 L5.57157227,1.60029086 Z" id="Shape"></path>
                    <path d="M3.94694094,0.00042434907 C3.77829215,0.00596834601 3.61655127,0.0657607558 3.48795403,0.17010274 C3.25426824,0.354357981 3.02630948,0.548764828 2.80224361,0.759785995 C2.80138054,0.760618026 2.80051961,0.761452081 2.79966083,0.762288152 C-0.83927214,4.22251342 -0.930646545,9.79824063 2.52431359,13.3663446 C2.70494184,13.5575631 2.97930633,13.6412349 3.24255988,13.5853854 C3.50581343,13.529536 3.71726874,13.342797 3.79611906,13.09653 C3.87496938,12.8502629 3.80902797,12.5825298 3.62349404,12.3956436 C0.703948756,9.38046268 0.775828757,4.70687018 3.85347411,1.77778485 C3.85384842,1.77749889 3.85411045,1.7774274 3.8544099,1.77706995 C3.85497137,1.77635505 3.85549541,1.77599759 3.85605689,1.77528269 C4.04523646,1.59728999 4.23827149,1.43246936 4.44115103,1.27250291 C4.6926568,1.07979054 4.78668276,0.754941407 4.67452012,0.466238912 C4.56235749,0.177536417 4.26921099,-0.0101433746 3.94694094,0.00042434907 Z" id="Shape"></path>
                </g>
            </g>
        </g>
        <g id="noun_buildings_952749_000000" transform="translate(340.000000, 83.000000)" fill="#000000" fill-rule="nonzero">
            <path d="M143.152866,142.303797 L137.057325,142.303797 L137.057325,70.9670886 L139.089172,70.9670886 C140.197452,70.9670886 140.936306,70.2278481 140.936306,69.1189873 L140.936306,56.7367089 C140.936306,55.6278481 140.197452,54.8886076 139.089172,54.8886076 L137.057325,54.8886076 L137.057325,48.235443 C137.057325,47.1265823 136.318471,46.3873418 135.210191,46.3873418 L94.5732484,46.3873418 L94.5732484,1.84810127 C94.5732484,0.739240506 93.8343949,0 92.7261146,0 L44.1464968,0 C43.0382166,0 42.2993631,0.739240506 42.2993631,1.84810127 L42.2993631,16.2632911 L1.84713376,16.2632911 C0.738853503,16.2632911 0,17.0025316 0,18.1113924 L0,30.4936709 C0,31.6025316 0.738853503,32.3417722 1.84713376,32.3417722 L3.87898089,32.3417722 L3.87898089,142.303797 L2.21656051,142.303797 C1.10828025,142.303797 0.369426752,143.043038 0.369426752,144.151899 C0.369426752,145.260759 1.10828025,146 2.21656051,146 L143.152866,146 C144.261146,146 145,145.260759 145,144.151899 C145,143.043038 144.076433,142.303797 143.152866,142.303797 Z M137.242038,58.5848101 L137.242038,67.2708861 L85.7070064,67.2708861 L85.7070064,58.5848101 L137.242038,58.5848101 Z M133.363057,49.8987342 L133.363057,54.7037975 L89.4012739,54.7037975 L89.4012739,49.8987342 L133.363057,49.8987342 Z M3.69426752,28.6455696 L3.69426752,19.9594937 L55.2292994,19.9594937 L55.2292994,28.6455696 L3.69426752,28.6455696 Z M51.3503185,142.303797 L7.57324841,142.303797 L7.57324841,32.3417722 L51.5350318,32.3417722 L51.5350318,142.303797 L51.3503185,142.303797 Z M85.7070064,142.303797 L55.044586,142.303797 L55.044586,32.3417722 L57.0764331,32.3417722 C58.1847134,32.3417722 58.9235669,31.6025316 58.9235669,30.4936709 L58.9235669,18.1113924 C58.9235669,17.0025316 58.1847134,16.2632911 57.0764331,16.2632911 L45.9936306,16.2632911 L45.9936306,3.69620253 L90.8789809,3.69620253 L90.8789809,46.3873418 L87.7388535,46.3873418 C86.6305732,46.3873418 85.8917197,47.1265823 85.8917197,48.235443 L85.8917197,54.8886076 L83.8598726,54.8886076 C82.7515924,54.8886076 82.0127389,55.6278481 82.0127389,56.7367089 L82.0127389,69.1189873 C82.0127389,70.2278481 82.7515924,70.9670886 83.8598726,70.9670886 L85.8917197,70.9670886 L85.8917197,142.303797 L85.7070064,142.303797 Z M133.363057,142.303797 L89.4012739,142.303797 L89.4012739,70.9670886 L133.363057,70.9670886 L133.363057,142.303797 Z" id="Shape"></path>
            <path d="M17,72 C18.2,72 19,71.2903226 19,70.2258065 L19,62.7741935 C19,61.7096774 18.2,61 17,61 C15.8,61 15,61.7096774 15,62.7741935 L15,70.2258065 C15,71.2903226 15.8,72 17,72 Z" id="Shape"></path>
            <path d="M30,72 C31.2,72 32,71.2903226 32,70.2258065 L32,62.7741935 C32,61.7096774 31.2,61 30,61 C28.8,61 28,61.7096774 28,62.7741935 L28,70.2258065 C28,71.2903226 29,72 30,72 Z" id="Shape"></path>
            <path d="M43,72 C44.2,72 45,71.2903226 45,70.2258065 L45,62.7741935 C45,61.7096774 44.2,61 43,61 C41.8,61 41,61.7096774 41,62.7741935 L41,70.2258065 C41,71.2903226 41.8,72 43,72 Z" id="Shape"></path>
            <path d="M17,52 C18.2,52 19,51.2903226 19,50.2258065 L19,42.7741935 C19,41.7096774 18.2,41 17,41 C15.8,41 15,41.7096774 15,42.7741935 L15,50.2258065 C15,51.2903226 15.8,52 17,52 Z" id="Shape"></path>
            <path d="M30,52 C31.2,52 32,51.2903226 32,50.2258065 L32,42.7741935 C32,41.7096774 31.2,41 30,41 C28.8,41 28,41.7096774 28,42.7741935 L28,50.2258065 C28,51.2903226 29,52 30,52 Z" id="Shape"></path>
            <path d="M43,52 C44.2,52 45,51.2903226 45,50.2258065 L45,42.7741935 C45,41.7096774 44.2,41 43,41 C41.8,41 41,41.7096774 41,42.7741935 L41,50.2258065 C41,51.2903226 41.8,52 43,52 Z" id="Shape"></path>
            <path d="M17,92 C18.2,92 19,91.2903226 19,90.2258065 L19,82.7741935 C19,81.7096774 18.2,81 17,81 C15.8,81 15,81.7096774 15,82.7741935 L15,90.2258065 C15,91.2903226 15.8,92 17,92 Z" id="Shape"></path>
            <path d="M30,92 C31.2,92 32,91.2903226 32,90.2258065 L32,82.7741935 C32,81.7096774 31.2,81 30,81 C28.8,81 28,81.7096774 28,82.7741935 L28,90.2258065 C28,91.2903226 29,92 30,92 Z" id="Shape"></path>
            <path d="M43,92 C44.2,92 45,91.2903226 45,90.2258065 L45,82.7741935 C45,81.7096774 44.2,81 43,81 C41.8,81 41,81.7096774 41,82.7741935 L41,90.2258065 C41,91.2903226 41.8,92 43,92 Z" id="Shape"></path>
            <path d="M17,113 C18.2,113 19,112.290323 19,111.225806 L19,103.774194 C19,102.709677 18.2,102 17,102 C15.8,102 15,102.709677 15,103.774194 L15,111.225806 C15,112.290323 15.8,113 17,113 Z" id="Shape"></path>
            <path d="M30,113 C31.2,113 32,112.290323 32,111.225806 L32,103.774194 C32,102.709677 31.2,102 30,102 C28.8,102 28,102.709677 28,103.774194 L28,111.225806 C28,112.290323 29,113 30,113 Z" id="Shape"></path>
            <path d="M43,113 C44.2,113 45,112.290323 45,111.225806 L45,103.774194 C45,102.709677 44.2,102 43,102 C41.8,102 41,102.709677 41,103.774194 L41,111.225806 C41,112.290323 41.8,113 43,113 Z" id="Shape"></path>
            <path d="M17,133 C18.2,133 19,132.290323 19,131.225806 L19,123.774194 C19,122.709677 18.2,122 17,122 C15.8,122 15,122.709677 15,123.774194 L15,131.225806 C15,132.112903 15.8,133 17,133 Z" id="Shape"></path>
            <path d="M30,133 C31.2,133 32,132.290323 32,131.225806 L32,123.774194 C32,122.709677 31.2,122 30,122 C28.8,122 28,122.709677 28,123.774194 L28,131.225806 C28,132.112903 29,133 30,133 Z" id="Shape"></path>
            <path d="M43,133 C44.2,133 45,132.290323 45,131.225806 L45,123.774194 C45,122.709677 44.2,122 43,122 C41.8,122 41,122.709677 41,123.774194 L41,131.225806 C41,132.112903 41.8,133 43,133 Z" id="Shape"></path>
            <path d="M77,61 C75.8,61 75,61.7096774 75,62.7741935 L75,70.2258065 C75,71.2903226 75.8,72 77,72 C78.2,72 79,71.2903226 79,70.2258065 L79,62.7741935 C79,61.8870968 78.2,61 77,61 Z" id="Shape"></path>
            <path d="M77,41 C75.8,41 75,41.7096774 75,42.7741935 L75,50.2258065 C75,51.2903226 75.8,52 77,52 C78.2,52 79,51.2903226 79,50.2258065 L79,42.7741935 C79,41.8870968 78.2,41 77,41 Z" id="Shape"></path>
            <path d="M77,81 C75.8,81 75,81.7096774 75,82.7741935 L75,90.2258065 C75,91.2903226 75.8,92 77,92 C78.2,92 79,91.2903226 79,90.2258065 L79,82.7741935 C79,81.8870968 78.2,81 77,81 Z" id="Shape"></path>
            <path d="M77,102 C75.8,102 75,102.709677 75,103.774194 L75,111.225806 C75,112.290323 75.8,113 77,113 C78.2,113 79,112.290323 79,111.225806 L79,103.774194 C79,102.709677 78.2,102 77,102 Z" id="Shape"></path>
            <path d="M77,122 C75.8,122 75,122.709677 75,123.774194 L75,131.225806 C75,132.290323 75.8,133 77,133 C78.2,133 79,132.290323 79,131.225806 L79,123.774194 C79,122.709677 78.2,122 77,122 Z" id="Shape"></path>
            <path d="M65,61 C63.8,61 63,61.7096774 63,62.7741935 L63,70.2258065 C63,71.2903226 63.8,72 65,72 C66.2,72 67,71.2903226 67,70.2258065 L67,62.7741935 C67,61.8870968 66.2,61 65,61 Z" id="Shape"></path>
            <path d="M65,41 C63.8,41 63,41.7096774 63,42.7741935 L63,50.2258065 C63,51.2903226 63.8,52 65,52 C66.2,52 67,51.2903226 67,50.2258065 L67,42.7741935 C67,41.8870968 66.2,41 65,41 Z" id="Shape"></path>
            <path d="M77,20 C75.8,20 75,20.7096774 75,21.7741935 L75,29.2258065 C75,30.2903226 75.8,31 77,31 C78.2,31 79,30.2903226 79,29.2258065 L79,21.7741935 C79,20.8870968 78.2,20 77,20 Z" id="Shape"></path>
            <path d="M65,20 C63.8,20 63,20.7096774 63,21.7741935 L63,29.2258065 C63,30.2903226 63.8,31 65,31 C66.2,31 67,30.2903226 67,29.2258065 L67,21.7741935 C67,20.8870968 66.2,20 65,20 Z" id="Shape"></path>
            <path d="M65,81 C63.8,81 63,81.7096774 63,82.7741935 L63,90.2258065 C63,91.2903226 63.8,92 65,92 C66.2,92 67,91.2903226 67,90.2258065 L67,82.7741935 C67,81.8870968 66.2,81 65,81 Z" id="Shape"></path>
            <path d="M65,102 C63.8,102 63,102.709677 63,103.774194 L63,111.225806 C63,112.290323 63.8,113 65,113 C66.2,113 67,112.290323 67,111.225806 L67,103.774194 C67,102.709677 66.2,102 65,102 Z" id="Shape"></path>
            <path d="M65,122 C63.8,122 63,122.709677 63,123.774194 L63,131.225806 C63,132.290323 63.8,133 65,133 C66.2,133 67,132.290323 67,131.225806 L67,123.774194 C67,122.709677 66.2,122 65,122 Z" id="Shape"></path>
            <path d="M99,92 C100.2,92 101,91.2903226 101,90.2258065 L101,82.7741935 C101,81.7096774 100.2,81 99,81 C97.8,81 97,81.7096774 97,82.7741935 L97,90.2258065 C97,91.2903226 97.8,92 99,92 Z" id="Shape"></path>
            <path d="M112,92 C113.2,92 114,91.2903226 114,90.2258065 L114,82.7741935 C114,81.7096774 113.2,81 112,81 C110.8,81 110,81.7096774 110,82.7741935 L110,90.2258065 C110,91.2903226 111,92 112,92 Z" id="Shape"></path>
            <path d="M125,92 C126.2,92 127,91.2903226 127,90.2258065 L127,82.7741935 C127,81.7096774 126.2,81 125,81 C123.8,81 123,81.7096774 123,82.7741935 L123,90.2258065 C123,91.2903226 123.8,92 125,92 Z" id="Shape"></path>
            <path d="M99,113 C100.2,113 101,112.290323 101,111.225806 L101,103.774194 C101,102.709677 100.2,102 99,102 C97.8,102 97,102.709677 97,103.774194 L97,111.225806 C97,112.290323 97.8,113 99,113 Z" id="Shape"></path>
            <path d="M112,113 C113.2,113 114,112.290323 114,111.225806 L114,103.774194 C114,102.709677 113.2,102 112,102 C110.8,102 110,102.709677 110,103.774194 L110,111.225806 C110,112.290323 111,113 112,113 Z" id="Shape"></path>
            <path d="M125,113 C126.2,113 127,112.290323 127,111.225806 L127,103.774194 C127,102.709677 126.2,102 125,102 C123.8,102 123,102.709677 123,103.774194 L123,111.225806 C123,112.290323 123.8,113 125,113 Z" id="Shape"></path>
            <path d="M99,133 C100.2,133 101,132.290323 101,131.225806 L101,123.774194 C101,122.709677 100.2,122 99,122 C97.8,122 97,122.709677 97,123.774194 L97,131.225806 C97,132.112903 97.8,133 99,133 Z" id="Shape"></path>
            <path d="M112,133 C113.2,133 114,132.290323 114,131.225806 L114,123.774194 C114,122.709677 113.2,122 112,122 C110.8,122 110,122.709677 110,123.774194 L110,131.225806 C110,132.112903 111,133 112,133 Z" id="Shape"></path>
            <path d="M125,133 C126.2,133 127,132.290323 127,131.225806 L127,123.774194 C127,122.709677 126.2,122 125,122 C123.8,122 123,122.709677 123,123.774194 L123,131.225806 C123,132.112903 123.8,133 125,133 Z" id="Shape"></path>
        </g>
        <g id="noun_buildings_1868747_000000" transform="translate(155.000000, 57.000000)" fill="#000000" fill-rule="nonzero">
            <path d="M169.85,167.7 L168.640625,167.7 L168.640625,2.15 C168.640625,0.96162104 167.679004,0 166.490625,0 L108.978125,0 C107.789746,0 106.828125,0.96162104 106.828125,2.15 L106.828125,167.7 L97.948877,167.7 L97.948877,75.1660156 C97.948877,73.9776367 96.9872559,73.0160156 95.798877,73.0160156 L5.509375,73.0160156 C4.32099604,73.0160156 3.359375,73.9776367 3.359375,75.1660156 L3.359375,167.7 L2.15,167.7 C0.96162104,167.7 0,168.661621 0,169.85 C0,171.038379 0.96162104,172 2.15,172 L169.85,172 C171.038379,172 172,171.038379 172,169.85 C172,168.661621 171.038379,167.7 169.85,167.7 Z M111.128125,4.3 L164.340625,4.3 L164.340625,167.7 L111.128125,167.7 L111.128125,4.3 Z M7.659375,77.3160156 L93.648877,77.3160156 L93.648877,167.7 L85.2462403,167.7 L85.2462403,147.621436 C85.2462403,146.433057 84.2846193,145.471436 83.0962403,145.471436 L57.4873046,145.471436 C56.2989256,145.471436 55.3373046,146.433057 55.3373046,147.621436 L55.3373046,167.7 L45.9709472,167.7 L45.9709472,147.621436 C45.9709472,146.433057 45.0093261,145.471436 43.8209472,145.471436 L18.2120117,145.471436 C17.0236327,145.471436 16.0620117,146.433057 16.0620117,147.621436 L16.0620117,167.7 L7.659375,167.7 L7.659375,77.3160156 Z M72.5457031,149.771436 L80.9462403,149.771436 L80.9462403,167.7 L72.5457031,167.7 L72.5457031,149.771436 Z M68.2457031,167.7 L59.6373048,167.7 L59.6373048,149.771436 L68.2457031,149.771436 L68.2457031,167.7 Z M33.2725097,149.771436 L41.6709472,149.771436 L41.6709472,167.7 L33.2725097,167.7 L33.2725097,149.771436 Z M28.9725097,167.7 L20.3620117,167.7 L20.3620117,149.771436 L28.9725097,149.771436 L28.9725097,167.7 Z" id="Shape"></path>
            <path d="M18,134 C19.1054688,134 20,133.020607 20,131.810264 L20,125.189736 C20,123.979393 19.1054688,123 18,123 C16.8945312,123 16,123.979393 16,125.189736 L16,131.810264 C16,133.020607 16.8945314,134 18,134 Z" id="Shape"></path>
            <path d="M31,134 C32.1054688,134 33,133.020607 33,131.810264 L33,125.189736 C33,123.979393 32.1054688,123 31,123 C29.8945312,123 29,123.979393 29,125.189736 L29,131.810264 C29,133.020607 29.8945314,134 31,134 Z" id="Shape"></path>
            <path d="M44,134 C45.1054688,134 46,133.020607 46,131.810264 L46,125.189736 C46,123.979393 45.1054688,123 44,123 C42.8945312,123 42,123.979393 42,125.189736 L42,131.810264 C42,133.020607 42.8945312,134 44,134 Z" id="Shape"></path>
            <path d="M57,134 C58.1054688,134 59,133.020607 59,131.810264 L59,125.189736 C59,123.979393 58.1054688,123 57,123 C55.8945312,123 55,123.979393 55,125.189736 L55,131.810264 C55,133.020607 55.8945312,134 57,134 Z" id="Shape"></path>
            <path d="M70,134 C71.1054688,134 72,133.020607 72,131.810264 L72,125.189736 C72,123.979393 71.1054688,123 70,123 C68.8945312,123 68,123.979393 68,125.189736 L68,131.810264 C68,133.020607 68.8945314,134 70,134 Z" id="Shape"></path>
            <path d="M83,134 C84.1054688,134 85,133.020607 85,131.810264 L85,125.189736 C85,123.979393 84.1054688,123 83,123 C81.8945312,123 81,123.979393 81,125.189736 L81,131.810264 C81,133.020607 81.8945312,134 83,134 Z" id="Shape"></path>
            <path d="M18,117 C19.1054688,117 20,116.020607 20,114.810264 L20,108.189736 C20,106.979393 19.1054688,106 18,106 C16.8945312,106 16,106.979393 16,108.189736 L16,114.810264 C16,116.020606 16.8945314,117 18,117 Z" id="Shape"></path>
            <path d="M31,117 C32.1054688,117 33,116.020607 33,114.810264 L33,108.189736 C33,106.979393 32.1054688,106 31,106 C29.8945312,106 29,106.979393 29,108.189736 L29,114.810264 C29,116.020606 29.8945314,117 31,117 Z" id="Shape"></path>
            <path d="M44,117 C45.1054688,117 46,116.020607 46,114.810264 L46,108.189736 C46,106.979393 45.1054688,106 44,106 C42.8945312,106 42,106.979393 42,108.189736 L42,114.810264 C42,116.020606 42.8945312,117 44,117 Z" id="Shape"></path>
            <path d="M57,117 C58.1054688,117 59,116.020607 59,114.810264 L59,108.189736 C59,106.979393 58.1054688,106 57,106 C55.8945312,106 55,106.979393 55,108.189736 L55,114.810264 C55,116.020606 55.8945312,117 57,117 Z" id="Shape"></path>
            <path d="M70,117 C71.1054688,117 72,116.020607 72,114.810264 L72,108.189736 C72,106.979393 71.1054688,106 70,106 C68.8945312,106 68,106.979393 68,108.189736 L68,114.810264 C68,116.020606 68.8945314,117 70,117 Z" id="Shape"></path>
            <path d="M83,117 C84.1054688,117 85,116.020607 85,114.810264 L85,108.189736 C85,106.979393 84.1054688,106 83,106 C81.8945312,106 81,106.979393 81,108.189736 L81,114.810264 C81,116.020606 81.8945312,117 83,117 Z" id="Shape"></path>
            <path d="M18,99 C19.1054688,99 20,98.0206066 20,96.8102644 L20,90.1897356 C20,88.9793934 19.1054688,88 18,88 C16.8945312,88 16,88.9793934 16,90.1897356 L16,96.8102644 C16,98.0206066 16.8945314,99 18,99 Z" id="Shape"></path>
            <path d="M31,99 C32.1054688,99 33,98.0206066 33,96.8102644 L33,90.1897356 C33,88.9793934 32.1054688,88 31,88 C29.8945312,88 29,88.9793934 29,90.1897356 L29,96.8102644 C29,98.0206066 29.8945314,99 31,99 Z" id="Shape"></path>
            <path d="M44,99 C45.1054688,99 46,98.0206066 46,96.8102644 L46,90.1897356 C46,88.9793934 45.1054688,88 44,88 C42.8945312,88 42,88.9793934 42,90.1897356 L42,96.8102644 C42,98.0206066 42.8945312,99 44,99 Z" id="Shape"></path>
            <path d="M57,99 C58.1054688,99 59,98.0206066 59,96.8102644 L59,90.1897356 C59,88.9793934 58.1054688,88 57,88 C55.8945312,88 55,88.9793934 55,90.1897356 L55,96.8102644 C55,98.0206066 55.8945312,99 57,99 Z" id="Shape"></path>
            <path d="M70,99 C71.1054688,99 72,98.0206066 72,96.8102644 L72,90.1897356 C72,88.9793934 71.1054688,88 70,88 C68.8945312,88 68,88.9793934 68,90.1897356 L68,96.8102644 C68,98.0206066 68.8945314,99 70,99 Z" id="Shape"></path>
            <path d="M83,99 C84.1054688,99 85,98.0206066 85,96.8102644 L85,90.1897356 C85,88.9793934 84.1054688,88 83,88 C81.8945312,88 81,88.9793934 81,90.1897356 L81,96.8102644 C81,98.0206066 81.8945312,99 83,99 Z" id="Shape"></path>
            <path d="M120,52 C118.894531,52 118,52.9793934 118,54.1897356 L118,60.8102644 C118,62.0206066 118.894531,63 120,63 C121.105469,63 122,62.0206066 122,60.8102644 L122,54.1897356 C122,52.9793934 121.105469,52 120,52 Z" id="Shape"></path>
            <path d="M132,52 C130.894531,52 130,52.9793934 130,54.1897356 L130,60.8102644 C130,62.0206066 130.894531,63 132,63 C133.105469,63 134,62.0206066 134,60.8102644 L134,54.1897356 C134,52.9793934 133.105469,52 132,52 Z" id="Shape"></path>
            <path d="M144,52 C142.894531,52 142,52.9793934 142,54.1897356 L142,60.8102644 C142,62.0206066 142.894531,63 144,63 C145.105469,63 146,62.0206066 146,60.8102644 L146,54.1897356 C146,52.9793934 145.105469,52 144,52 Z" id="Shape"></path>
            <path d="M156,52 C154.894531,52 154,52.9793934 154,54.1897356 L154,60.8102644 C154,62.0206066 154.894531,63 156,63 C157.105469,63 158,62.0206066 158,60.8102644 L158,54.1897356 C158,52.9793934 157.105469,52 156,52 Z" id="Shape"></path>
            <path d="M120,35 C118.894531,35 118,35.9793934 118,37.1897356 L118,43.8102644 C118,45.0206066 118.894531,46 120,46 C121.105469,46 122,45.0206066 122,43.8102644 L122,37.1897356 C122,35.9793934 121.105469,35 120,35 Z" id="Shape"></path>
            <path d="M132,35 C130.894531,35 130,35.9793934 130,37.1897356 L130,43.8102644 C130,45.0206066 130.894531,46 132,46 C133.105469,46 134,45.0206066 134,43.8102644 L134,37.1897356 C134,35.9793934 133.105469,35 132,35 Z" id="Shape"></path>
            <path d="M144,35 C142.894531,35 142,35.9793934 142,37.1897356 L142,43.8102644 C142,45.0206066 142.894531,46 144,46 C145.105469,46 146,45.0206066 146,43.8102644 L146,37.1897356 C146,35.9793934 145.105469,35 144,35 Z" id="Shape"></path>
            <path d="M156,35 C154.894531,35 154,35.9793934 154,37.1897356 L154,43.8102644 C154,45.0206066 154.894531,46 156,46 C157.105469,46 158,45.0206066 158,43.8102644 L158,37.1897356 C158,35.9793934 157.105469,35 156,35 Z" id="Shape"></path>
            <path d="M120,17 C118.894531,17 118,17.9793934 118,19.1897356 L118,25.8102644 C118,27.0206066 118.894531,28 120,28 C121.105469,28 122,27.0206066 122,25.8102644 L122,19.1897356 C122,17.9793936 121.105469,17 120,17 Z" id="Shape"></path>
            <path d="M132,17 C130.894531,17 130,17.9793934 130,19.1897356 L130,25.8102644 C130,27.0206066 130.894531,28 132,28 C133.105469,28 134,27.0206066 134,25.8102644 L134,19.1897356 C134,17.9793936 133.105469,17 132,17 Z" id="Shape"></path>
            <path d="M144,17 C142.894531,17 142,17.9793934 142,19.1897356 L142,25.8102644 C142,27.0206066 142.894531,28 144,28 C145.105469,28 146,27.0206066 146,25.8102644 L146,19.1897356 C146,17.9793936 145.105469,17 144,17 Z" id="Shape"></path>
            <path d="M156,17 C154.894531,17 154,17.9793934 154,19.1897356 L154,25.8102644 C154,27.0206066 154.894531,28 156,28 C157.105469,28 158,27.0206066 158,25.8102644 L158,19.1897356 C158,17.9793936 157.105469,17 156,17 Z" id="Shape"></path>
            <path d="M120,104 C118.894531,104 118,104.979393 118,106.189736 L118,112.810264 C118,114.020607 118.894531,115 120,115 C121.105469,115 122,114.020607 122,112.810264 L122,106.189736 C122,104.979394 121.105469,104 120,104 Z" id="Shape"></path>
            <path d="M132,104 C130.894531,104 130,104.979393 130,106.189736 L130,112.810264 C130,114.020607 130.894531,115 132,115 C133.105469,115 134,114.020607 134,112.810264 L134,106.189736 C134,104.979394 133.105469,104 132,104 Z" id="Shape"></path>
            <path d="M144,104 C142.894531,104 142,104.979393 142,106.189736 L142,112.810264 C142,114.020607 142.894531,115 144,115 C145.105469,115 146,114.020607 146,112.810264 L146,106.189736 C146,104.979394 145.105469,104 144,104 Z" id="Shape"></path>
            <path d="M156,104 C154.894531,104 154,104.979393 154,106.189736 L154,112.810264 C154,114.020607 154.894531,115 156,115 C157.105469,115 158,114.020607 158,112.810264 L158,106.189736 C158,104.979394 157.105469,104 156,104 Z" id="Shape"></path>
            <path d="M120,86 C118.894531,86 118,86.9793934 118,88.1897356 L118,94.8102644 C118,96.0206066 118.894531,97 120,97 C121.105469,97 122,96.0206066 122,94.8102644 L122,88.1897356 C122,86.9793934 121.105469,86 120,86 Z" id="Shape"></path>
            <path d="M132,86 C130.894531,86 130,86.9793934 130,88.1897356 L130,94.8102644 C130,96.0206066 130.894531,97 132,97 C133.105469,97 134,96.0206066 134,94.8102644 L134,88.1897356 C134,86.9793934 133.105469,86 132,86 Z" id="Shape"></path>
            <path d="M144,86 C142.894531,86 142,86.9793934 142,88.1897356 L142,94.8102644 C142,96.0206066 142.894531,97 144,97 C145.105469,97 146,96.0206066 146,94.8102644 L146,88.1897356 C146,86.9793934 145.105469,86 144,86 Z" id="Shape"></path>
            <path d="M156,86 C154.894531,86 154,86.9793934 154,88.1897356 L154,94.8102644 C154,96.0206066 154.894531,97 156,97 C157.105469,97 158,96.0206066 158,94.8102644 L158,88.1897356 C158,86.9793934 157.105469,86 156,86 Z" id="Shape"></path>
            <path d="M120,69 C118.894531,69 118,69.9793934 118,71.1897356 L118,77.8102644 C118,79.0206066 118.894531,80 120,80 C121.105469,80 122,79.0206066 122,77.8102644 L122,71.1897356 C122,69.9793934 121.105469,69 120,69 Z" id="Shape"></path>
            <path d="M132,69 C130.894531,69 130,69.9793934 130,71.1897356 L130,77.8102644 C130,79.0206066 130.894531,80 132,80 C133.105469,80 134,79.0206066 134,77.8102644 L134,71.1897356 C134,69.9793934 133.105469,69 132,69 Z" id="Shape"></path>
            <path d="M144,69 C142.894531,69 142,69.9793934 142,71.1897356 L142,77.8102644 C142,79.0206066 142.894531,80 144,80 C145.105469,80 146,79.0206066 146,77.8102644 L146,71.1897356 C146,69.9793934 145.105469,69 144,69 Z" id="Shape"></path>
            <path d="M156,69 C154.894531,69 154,69.9793934 154,71.1897356 L154,77.8102644 C154,79.0206066 154.894531,80 156,80 C157.105469,80 158,79.0206066 158,77.8102644 L158,71.1897356 C158,69.9793934 157.105469,69 156,69 Z" id="Shape"></path>
            <path d="M120,138 C118.894531,138 118,138.979393 118,140.189736 L118,146.810264 C118,148.020607 118.894531,149 120,149 C121.105469,149 122,148.020607 122,146.810264 L122,140.189736 C122,138.979393 121.105469,138 120,138 Z" id="Shape"></path>
            <path d="M132,138 C130.894531,138 130,138.979393 130,140.189736 L130,146.810264 C130,148.020607 130.894531,149 132,149 C133.105469,149 134,148.020607 134,146.810264 L134,140.189736 C134,138.979393 133.105469,138 132,138 Z" id="Shape"></path>
            <path d="M144,138 C142.894531,138 142,138.979393 142,140.189736 L142,146.810264 C142,148.020607 142.894531,149 144,149 C145.105469,149 146,148.020607 146,146.810264 L146,140.189736 C146,138.979393 145.105469,138 144,138 Z" id="Shape"></path>
            <path d="M156,138 C154.894531,138 154,138.979393 154,140.189736 L154,146.810264 C154,148.020607 154.894531,149 156,149 C157.105469,149 158,148.020607 158,146.810264 L158,140.189736 C158,138.979393 157.105469,138 156,138 Z" id="Shape"></path>
            <path d="M120,121 C118.894531,121 118,121.979393 118,123.189736 L118,129.810264 C118,131.020607 118.894531,132 120,132 C121.105469,132 122,131.020607 122,129.810264 L122,123.189736 C122,121.979393 121.105469,121 120,121 Z" id="Shape"></path>
            <path d="M132,121 C130.894531,121 130,121.979393 130,123.189736 L130,129.810264 C130,131.020607 130.894531,132 132,132 C133.105469,132 134,131.020607 134,129.810264 L134,123.189736 C134,121.979393 133.105469,121 132,121 Z" id="Shape"></path>
            <path d="M144,121 C142.894531,121 142,121.979393 142,123.189736 L142,129.810264 C142,131.020607 142.894531,132 144,132 C145.105469,132 146,131.020607 146,129.810264 L146,123.189736 C146,121.979393 145.105469,121 144,121 Z" id="Shape"></path>
            <path d="M156,121 C154.894531,121 154,121.979393 154,123.189736 L154,129.810264 C154,131.020607 154.894531,132 156,132 C157.105469,132 158,131.020607 158,129.810264 L158,123.189736 C158,121.979393 157.105469,121 156,121 Z" id="Shape"></path>
        </g>
        <g id="Wifi" transform="translate(176.040035, 122.230501) rotate(-56.000000) translate(-176.040035, -122.230501) translate(172.040035, 115.230501)" fill="#000000" fill-rule="nonzero">
            <path d="M0.701743738,3.20057206 C0.396763148,3.20149098 0.128855711,3.40377694 0.0437524197,3.69739434 C-0.0413507934,3.99101174 0.0767031607,4.3057399 0.333697679,4.47037909 C0.513751187,4.58937257 0.68218838,4.72598335 0.840521338,4.88223401 C0.841243069,4.88292313 0.841930492,4.88361224 0.842652223,4.88430137 C2.0512687,6.09241164 2.10880063,7.9836 1.03016351,9.26160403 C0.868178623,9.44914539 0.819243252,9.70950324 0.902038138,9.94328787 C0.984832944,10.1770725 1.18657773,10.3481968 1.43025784,10.3913352 C1.67393802,10.4344736 1.92193883,10.3429674 2.07958791,10.1517483 C3.61146904,8.33669724 3.5190193,5.61041484 1.81010906,3.90532287 C1.80935444,3.90463206 1.8085984,3.90394295 1.80784079,3.90325551 C1.58661445,3.68451907 1.3468639,3.48937115 1.09020428,3.31976883 C0.975653928,3.24170485 0.840251908,3.20015757 0.701743738,3.20057206 Z" id="Shape"></path>
            <path d="M2.29843226,1.60051956 C1.98933437,1.60839171 1.71913254,1.80648664 1.62484299,2.09435269 C1.53055344,2.38221875 1.6327995,2.69689289 1.87973338,2.8788075 C2.07592118,3.02762169 2.26512829,3.18750365 2.43612003,3.35551405 C2.43706264,3.35646441 2.43800792,3.35741221 2.43895596,3.35835741 C4.55248338,5.41181907 4.6197457,8.67580792 2.65757668,10.8083967 C2.4794154,10.9965447 2.41870216,11.2639006 2.49868976,11.508069 C2.57867735,11.7522373 2.78697036,11.9353806 3.04379405,11.9873559 C3.30061773,12.0393313 3.56617332,11.9520845 3.73875481,11.7590304 C6.20760908,9.07577226 6.1163141,4.93012243 3.46686959,2.35296419 L3.46686959,2.35285757 C3.4659243,2.35179131 3.46490623,2.35108047 3.46392459,2.35001421 C3.24115903,2.1314276 3.00639536,1.93429056 2.77108637,1.75579883 C2.63715095,1.65117791 2.46970838,1.59618258 2.29832312,1.60052311 L2.29843226,1.60051956 Z" id="Shape"></path>
            <path d="M3.91563583,6.899263e-06 C3.59739717,-0.00132297893 3.31308443,0.189715907 3.20688026,0.476242547 C3.10067617,0.762769187 3.19581217,1.08210747 3.44404228,1.27231226 C3.65115725,1.43563553 3.84723363,1.60044911 4.02662096,1.77265707 C4.02742964,1.77349283 4.02824037,1.77432673 4.02905322,1.77515879 C7.10846174,4.70377344 7.18472194,9.37798745 4.26176289,12.3934119 C4.07484884,12.5799493 4.00779402,12.8482647 4.08634854,13.0953212 C4.16490306,13.3423776 4.37685469,13.5297677 4.6408111,13.585531 C4.9047675,13.6412943 5.17969395,13.5567619 5.36001477,13.3643953 C8.8173941,9.79763384 8.72264879,4.22424298 5.08756598,0.76464098 C5.08674274,0.763926201 5.08591958,0.763211423 5.08509634,0.762139255 C4.8591221,0.545418477 4.62637506,0.351020224 4.39695827,0.17010269 C4.26252357,0.0609921336 4.09205267,0.000748966213 3.91563583,6.89926292e-06 Z" id="Shape"></path>
        </g>
        <g id="Wifi" transform="translate(205.040035, 122.230501) rotate(-77.000000) translate(-205.040035, -122.230501) translate(201.040035, 115.230501)" fill="#000000" fill-rule="nonzero">
            <path d="M0.701743738,3.20057206 C0.396763148,3.20149098 0.128855711,3.40377694 0.0437524197,3.69739434 C-0.0413507934,3.99101174 0.0767031607,4.3057399 0.333697679,4.47037909 C0.513751187,4.58937257 0.68218838,4.72598335 0.840521338,4.88223401 C0.841243069,4.88292313 0.841930492,4.88361224 0.842652223,4.88430137 C2.0512687,6.09241164 2.10880063,7.9836 1.03016351,9.26160403 C0.868178623,9.44914539 0.819243252,9.70950324 0.902038138,9.94328787 C0.984832944,10.1770725 1.18657773,10.3481968 1.43025784,10.3913352 C1.67393802,10.4344736 1.92193883,10.3429674 2.07958791,10.1517483 C3.61146904,8.33669724 3.5190193,5.61041484 1.81010906,3.90532287 C1.80935444,3.90463206 1.8085984,3.90394295 1.80784079,3.90325551 C1.58661445,3.68451907 1.3468639,3.48937115 1.09020428,3.31976883 C0.975653928,3.24170485 0.840251908,3.20015757 0.701743738,3.20057206 Z" id="Shape"></path>
            <path d="M2.29843226,1.60051956 C1.98933437,1.60839171 1.71913254,1.80648664 1.62484299,2.09435269 C1.53055344,2.38221875 1.6327995,2.69689289 1.87973338,2.8788075 C2.07592118,3.02762169 2.26512829,3.18750365 2.43612003,3.35551405 C2.43706264,3.35646441 2.43800792,3.35741221 2.43895596,3.35835741 C4.55248338,5.41181907 4.6197457,8.67580792 2.65757668,10.8083967 C2.4794154,10.9965447 2.41870216,11.2639006 2.49868976,11.508069 C2.57867735,11.7522373 2.78697036,11.9353806 3.04379405,11.9873559 C3.30061773,12.0393313 3.56617332,11.9520845 3.73875481,11.7590304 C6.20760908,9.07577226 6.1163141,4.93012243 3.46686959,2.35296419 L3.46686959,2.35285757 C3.4659243,2.35179131 3.46490623,2.35108047 3.46392459,2.35001421 C3.24115903,2.1314276 3.00639536,1.93429056 2.77108637,1.75579883 C2.63715095,1.65117791 2.46970838,1.59618258 2.29832312,1.60052311 L2.29843226,1.60051956 Z" id="Shape"></path>
            <path d="M3.91563583,6.899263e-06 C3.59739717,-0.00132297893 3.31308443,0.189715907 3.20688026,0.476242547 C3.10067617,0.762769187 3.19581217,1.08210747 3.44404228,1.27231226 C3.65115725,1.43563553 3.84723363,1.60044911 4.02662096,1.77265707 C4.02742964,1.77349283 4.02824037,1.77432673 4.02905322,1.77515879 C7.10846174,4.70377344 7.18472194,9.37798745 4.26176289,12.3934119 C4.07484884,12.5799493 4.00779402,12.8482647 4.08634854,13.0953212 C4.16490306,13.3423776 4.37685469,13.5297677 4.6408111,13.585531 C4.9047675,13.6412943 5.17969395,13.5567619 5.36001477,13.3643953 C8.8173941,9.79763384 8.72264879,4.22424298 5.08756598,0.76464098 C5.08674274,0.763926201 5.08591958,0.763211423 5.08509634,0.762139255 C4.8591221,0.545418477 4.62637506,0.351020224 4.39695827,0.17010269 C4.26252357,0.0609921336 4.09205267,0.000748966213 3.91563583,6.89926292e-06 Z" id="Shape"></path>
        </g>
        <g id="Wifi" transform="translate(233.321986, 121.594869) rotate(-75.000000) translate(-233.321986, -121.594869) translate(229.321986, 114.594869)" fill="#000000" fill-rule="nonzero">
            <path d="M0.701743738,3.20057206 C0.396763148,3.20149098 0.128855711,3.40377694 0.0437524197,3.69739434 C-0.0413507934,3.99101174 0.0767031607,4.3057399 0.333697679,4.47037909 C0.513751187,4.58937257 0.68218838,4.72598335 0.840521338,4.88223401 C0.841243069,4.88292313 0.841930492,4.88361224 0.842652223,4.88430137 C2.0512687,6.09241164 2.10880063,7.9836 1.03016351,9.26160403 C0.868178623,9.44914539 0.819243252,9.70950324 0.902038138,9.94328787 C0.984832944,10.1770725 1.18657773,10.3481968 1.43025784,10.3913352 C1.67393802,10.4344736 1.92193883,10.3429674 2.07958791,10.1517483 C3.61146904,8.33669724 3.5190193,5.61041484 1.81010906,3.90532287 C1.80935444,3.90463206 1.8085984,3.90394295 1.80784079,3.90325551 C1.58661445,3.68451907 1.3468639,3.48937115 1.09020428,3.31976883 C0.975653928,3.24170485 0.840251908,3.20015757 0.701743738,3.20057206 Z" id="Shape"></path>
            <path d="M2.29843226,1.60051956 C1.98933437,1.60839171 1.71913254,1.80648664 1.62484299,2.09435269 C1.53055344,2.38221875 1.6327995,2.69689289 1.87973338,2.8788075 C2.07592118,3.02762169 2.26512829,3.18750365 2.43612003,3.35551405 C2.43706264,3.35646441 2.43800792,3.35741221 2.43895596,3.35835741 C4.55248338,5.41181907 4.6197457,8.67580792 2.65757668,10.8083967 C2.4794154,10.9965447 2.41870216,11.2639006 2.49868976,11.508069 C2.57867735,11.7522373 2.78697036,11.9353806 3.04379405,11.9873559 C3.30061773,12.0393313 3.56617332,11.9520845 3.73875481,11.7590304 C6.20760908,9.07577226 6.1163141,4.93012243 3.46686959,2.35296419 L3.46686959,2.35285757 C3.4659243,2.35179131 3.46490623,2.35108047 3.46392459,2.35001421 C3.24115903,2.1314276 3.00639536,1.93429056 2.77108637,1.75579883 C2.63715095,1.65117791 2.46970838,1.59618258 2.29832312,1.60052311 L2.29843226,1.60051956 Z" id="Shape"></path>
            <path d="M3.91563583,6.899263e-06 C3.59739717,-0.00132297893 3.31308443,0.189715907 3.20688026,0.476242547 C3.10067617,0.762769187 3.19581217,1.08210747 3.44404228,1.27231226 C3.65115725,1.43563553 3.84723363,1.60044911 4.02662096,1.77265707 C4.02742964,1.77349283 4.02824037,1.77432673 4.02905322,1.77515879 C7.10846174,4.70377344 7.18472194,9.37798745 4.26176289,12.3934119 C4.07484884,12.5799493 4.00779402,12.8482647 4.08634854,13.0953212 C4.16490306,13.3423776 4.37685469,13.5297677 4.6408111,13.585531 C4.9047675,13.6412943 5.17969395,13.5567619 5.36001477,13.3643953 C8.8173941,9.79763384 8.72264879,4.22424298 5.08756598,0.76464098 C5.08674274,0.763926201 5.08591958,0.763211423 5.08509634,0.762139255 C4.8591221,0.545418477 4.62637506,0.351020224 4.39695827,0.17010269 C4.26252357,0.0609921336 4.09205267,0.000748966213 3.91563583,6.89926292e-06 Z" id="Shape"></path>
        </g>
        <g id="noun_Apartment_1077155_000000" transform="translate(0.000000, 83.000000)" fill="#000000" fill-rule="nonzero">
            <path d="M0,145.138251 C0,146.167798 0.833124824,147 1.86381392,147 L144.136186,147 C145.166875,147 146,146.167798 146,145.138251 C146,144.108703 145.166875,143.276501 144.136186,143.276501 L136.10874,143.276501 L136.10874,46.7541098 L137.715347,46.7541098 C138.746036,46.7541098 139.579161,45.9219078 139.579161,44.8923605 L139.579161,32.3553408 C139.579161,31.3257935 138.746036,30.4935915 137.715347,30.4935915 L130.532208,30.4935915 L130.532208,24.141303 C130.532208,23.1117556 129.699083,22.2795537 128.668394,22.2795537 L119.735134,22.2795537 C118.704445,22.2795537 117.87132,23.1117556 117.87132,24.141303 L117.87132,30.4935915 L92.622233,30.4935915 L92.622233,24.9083437 L94.5419613,24.9083437 C95.5726504,24.9083437 96.4057753,24.0761417 96.4057753,23.0465944 L96.4057753,10.5114365 C96.4057753,9.48188911 95.5726504,8.64968718 94.5419613,8.64968718 L92.9334899,8.64968718 L92.9334899,1.86174928 C92.9334899,0.83220193 92.1003651,0 91.069676,0 L47.5831695,0 C46.5524804,0 45.7193556,0.83220193 45.7193556,1.86174928 L45.7193556,8.64968718 L44.1108842,8.64968718 C43.0801951,8.64968718 42.2470702,9.48188911 42.2470702,10.5114365 L42.2470702,23.0465944 C42.2470702,24.0761417 43.0801951,24.9083437 44.1108842,24.9083437 L45.7193556,24.9083437 L45.7193556,143.276501 L33.0062808,143.276501 L33.0062808,137.68753 C36.6034417,136.840434 39.2966528,133.625193 39.2966528,129.776957 L39.2966528,124.975506 C39.2966528,120.484967 35.6379861,116.830353 31.1424669,116.830353 C26.6469477,116.830353 22.988281,120.484967 22.988281,124.975506 L22.988281,129.776957 C22.988281,133.625193 25.6814921,136.840434 29.2786529,137.68753 L29.2786529,143.276501 L13.6692113,143.276501 L13.6692113,133.102042 C17.2663722,132.254946 19.9595833,129.039705 19.9595833,125.191469 L19.9595833,114.806631 C19.9595833,110.316092 16.3009166,106.661478 11.8053974,106.661478 C7.30987821,106.661478 3.65121148,110.316092 3.65121148,114.806631 L3.65121148,125.191469 C3.65121148,129.039705 6.3444226,132.254946 9.94158348,133.102042 L9.94158348,143.276501 L1.86381392,143.276501 C0.833124824,143.276501 0,144.108703 0,145.138251 Z M89.2058621,8.64782543 L49.4469834,8.64782543 L49.4469834,3.72163682 L89.2058621,3.72163682 L89.2058621,8.64782543 Z M126.80458,30.4935915 L121.598948,30.4935915 L121.598948,26.0030523 L126.80458,26.0030523 L126.80458,30.4935915 Z M92.622233,46.7541098 L132.381112,46.7541098 L132.381112,143.276501 L92.622233,143.276501 L92.622233,46.7541098 Z M89.1499477,34.2170901 L135.853397,34.2170901 L135.853397,43.0306112 L89.1499477,43.0306112 L89.1499477,34.2170901 Z M49.4469834,24.9083437 L88.8946052,24.9083437 L88.8946052,30.4935915 L87.2861337,30.4935915 C86.2554446,30.4935915 85.4223198,31.3257935 85.4223198,32.3553408 L85.4223198,44.8923605 C85.4223198,45.9219078 86.2554446,46.7541098 87.2861337,46.7541098 L88.8946052,46.7541098 L88.8946052,143.276501 L49.4469834,143.276501 L49.4469834,24.9083437 Z M45.9746981,12.371324 L92.6800112,12.371324 L92.6800112,21.1829834 L45.9746981,21.1829834 L45.9746981,12.371324 Z M31.1424669,134.198612 C28.7008706,134.198612 26.7159088,132.215849 26.7159088,129.776957 L26.7159088,124.975506 C26.7159088,122.536614 28.7008706,120.553851 31.1424669,120.553851 C33.5840631,120.553851 35.5690249,122.536614 35.5690249,124.975506 L35.5690249,129.776957 C35.5690249,132.213987 33.5840631,134.198612 31.1424669,134.198612 Z M11.8053974,129.613123 C9.36380116,129.613123 7.37883933,127.63036 7.37883933,125.191469 L7.37883933,114.806631 C7.37883933,112.36774 9.36380116,110.384977 11.8053974,110.384977 C14.2469936,110.384977 16.2319555,112.36774 16.2319555,114.806631 L16.2319555,125.191469 C16.2319555,127.63036 14.2469936,129.613123 11.8053974,129.613123 Z" id="Shape"></path>
            <path d="M80,69 C78.894,69 78,68.1720945 78,67.1478623 L78,58.8521377 C78,57.8279055 78.894,57 80,57 C81.106,57 82,57.8279055 82,58.8521377 L82,67.1478623 C82,68.1720945 81.106,69 80,69 Z" id="Shape"></path>
            <path d="M69,69 C67.894,69 67,68.1720945 67,67.1478623 L67,58.8521377 C67,57.8279055 67.894,57 69,57 C70.106,57 71,57.8279055 71,58.8521377 L71,67.1478623 C71,68.1720945 70.106,69 69,69 Z" id="Shape"></path>
            <path d="M57,69 C55.894,69 55,68.1720945 55,67.1478623 L55,58.8521377 C55,57.8279055 55.894,57 57,57 C58.106,57 59,57.8279055 59,58.8521377 L59,67.1478623 C59,68.1720945 58.104,69 57,69 Z" id="Shape"></path>
            <path d="M80,91 C78.894,91 78,90.1720945 78,89.1478623 L78,80.8521377 C78,79.8279055 78.894,79 80,79 C81.106,79 82,79.8279055 82,80.8521377 L82,89.1478623 C82,90.1720945 81.106,91 80,91 Z" id="Shape"></path>
            <path d="M69,91 C67.894,91 67,90.1720945 67,89.1478623 L67,80.8521377 C67,79.8279055 67.894,79 69,79 C70.106,79 71,79.8279055 71,80.8521377 L71,89.1478623 C71,90.1720945 70.106,91 69,91 Z" id="Shape"></path>
            <path d="M57,91 C55.894,91 55,90.1720945 55,89.1478623 L55,80.8521377 C55,79.8279055 55.894,79 57,79 C58.106,79 59,79.8279055 59,80.8521377 L59,89.1478623 C59,90.1720945 58.104,91 57,91 Z" id="Shape"></path>
            <path d="M80,46 C78.894,46 78,45.1720945 78,44.1478623 L78,35.8521377 C78,34.8279055 78.894,34 80,34 C81.106,34 82,34.8279055 82,35.8521377 L82,44.1478623 C82,45.1720945 81.106,46 80,46 Z" id="Shape"></path>
            <path d="M69,46 C67.894,46 67,45.1720945 67,44.1478623 L67,35.8521377 C67,34.8279055 67.894,34 69,34 C70.106,34 71,34.8279055 71,35.8521377 L71,44.1478623 C71,45.1720945 70.106,46 69,46 Z" id="Shape"></path>
            <path d="M57,46 C55.894,46 55,45.1720945 55,44.1478623 L55,35.8521377 C55,34.8279055 55.894,34 57,34 C58.106,34 59,34.8279055 59,35.8521377 L59,44.1478623 C59,45.1720945 58.104,46 57,46 Z" id="Shape"></path>
            <path d="M80,112 C78.894,112 78,111.172094 78,110.147862 L78,101.852138 C78,100.827906 78.894,100 80,100 C81.106,100 82,100.827906 82,101.852138 L82,110.147862 C82,111.172094 81.106,112 80,112 Z" id="Shape"></path>
            <path d="M69,112 C67.894,112 67,111.172094 67,110.147862 L67,101.852138 C67,100.827906 67.894,100 69,100 C70.106,100 71,100.827906 71,101.852138 L71,110.147862 C71,111.172094 70.106,112 69,112 Z" id="Shape"></path>
            <path d="M57,112 C55.894,112 55,111.172094 55,110.147862 L55,101.852138 C55,100.827906 55.894,100 57,100 C58.106,100 59,100.827906 59,101.852138 L59,110.147862 C59,111.172094 58.104,112 57,112 Z" id="Shape"></path>
            <path d="M80,135 C78.894,135 78,134.172094 78,133.147862 L78,124.852138 C78,123.827906 78.894,123 80,123 C81.106,123 82,123.827906 82,124.852138 L82,133.147862 C82,134.172094 81.106,135 80,135 Z" id="Shape"></path>
            <path d="M69,135 C67.894,135 67,134.172094 67,133.147862 L67,124.852138 C67,123.827906 67.894,123 69,123 C70.106,123 71,123.827906 71,124.852138 L71,133.147862 C71,134.172094 70.106,135 69,135 Z" id="Shape"></path>
            <path d="M57,135 C55.894,135 55,134.172094 55,133.147862 L55,124.852138 C55,123.827906 55.894,123 57,123 C58.106,123 59,123.827906 59,124.852138 L59,133.147862 C59,134.172094 58.104,135 57,135 Z" id="Shape"></path>
            <path d="M124,69 C122.894,69 122,68.1720945 122,67.1478623 L122,58.8521377 C122,57.8279055 122.894,57 124,57 C125.106,57 126,57.8279055 126,58.8521377 L126,67.1478623 C126,68.1720945 125.104,69 124,69 Z" id="Shape"></path>
            <path d="M113,69 C111.894,69 111,68.1720945 111,67.1478623 L111,58.8521377 C111,57.8279055 111.894,57 113,57 C114.106,57 115,57.8279055 115,58.8521377 L115,67.1478623 C115,68.1720945 114.106,69 113,69 Z" id="Shape"></path>
            <path d="M100,69 C98.894,69 98,68.1720945 98,67.1478623 L98,58.8521377 C98,57.8279055 98.894,57 100,57 C101.106,57 102,57.8279055 102,58.8521377 L102,67.1478623 C102,68.1720945 101.106,69 100,69 Z" id="Shape"></path>
            <path d="M124,91 C122.894,91 122,90.1720945 122,89.1478623 L122,80.8521377 C122,79.8279055 122.894,79 124,79 C125.106,79 126,79.8279055 126,80.8521377 L126,89.1478623 C126,90.1720945 125.104,91 124,91 Z" id="Shape"></path>
            <path d="M113,91 C111.894,91 111,90.1720945 111,89.1478623 L111,80.8521377 C111,79.8279055 111.894,79 113,79 C114.106,79 115,79.8279055 115,80.8521377 L115,89.1478623 C115,90.1720945 114.106,91 113,91 Z" id="Shape"></path>
            <path d="M100,91 C98.894,91 98,90.1720945 98,89.1478623 L98,80.8521377 C98,79.8279055 98.894,79 100,79 C101.106,79 102,79.8279055 102,80.8521377 L102,89.1478623 C102,90.1720945 101.106,91 100,91 Z" id="Shape"></path>
            <path d="M124,112 C122.894,112 122,111.172094 122,110.147862 L122,101.852138 C122,100.827906 122.894,100 124,100 C125.106,100 126,100.827906 126,101.852138 L126,110.147862 C126,111.172094 125.104,112 124,112 Z" id="Shape"></path>
            <path d="M113,112 C111.894,112 111,111.172094 111,110.147862 L111,101.852138 C111,100.827906 111.894,100 113,100 C114.106,100 115,100.827906 115,101.852138 L115,110.147862 C115,111.172094 114.106,112 113,112 Z" id="Shape"></path>
            <path d="M100,112 C98.894,112 98,111.172094 98,110.147862 L98,101.852138 C98,100.827906 98.894,100 100,100 C101.106,100 102,100.827906 102,101.852138 L102,110.147862 C102,111.172094 101.106,112 100,112 Z" id="Shape"></path>
            <path d="M124,135 C122.894,135 122,134.172094 122,133.147862 L122,124.852138 C122,123.827906 122.894,123 124,123 C125.106,123 126,123.827906 126,124.852138 L126,133.147862 C126,134.172094 125.104,135 124,135 Z" id="Shape"></path>
            <path d="M113,135 C111.894,135 111,134.172094 111,133.147862 L111,124.852138 C111,123.827906 111.894,123 113,123 C114.106,123 115,123.827906 115,124.852138 L115,133.147862 C115,134.172094 114.106,135 113,135 Z" id="Shape"></path>
            <path d="M100,135 C98.894,135 98,134.172094 98,133.147862 L98,124.852138 C98,123.827906 98.894,123 100,123 C101.106,123 102,123.827906 102,124.852138 L102,133.147862 C102,134.172094 101.106,135 100,135 Z" id="Shape"></path>
        </g>
    </g>
</svg>