<?xml version="1.0" encoding="UTF-8"?>
<svg width="504px" height="100px" viewBox="0 0 504 100" version="1.1" xmlns="http://www.w3.org/2000/svg" xmlns:xlink="http://www.w3.org/1999/xlink">
    <!-- Generator: Sketch 51.3 (57544) - http://www.bohemiancoding.com/sketch -->
    <title>Festivals</title>
    <desc>Created with Sketch.</desc>
    <defs></defs>
    <g id="Page-1" stroke="none" stroke-width="1" fill="none" fill-rule="evenodd">
        <g id="isems" transform="translate(187.000000, 0.000000)" fill="#000000" fill-rule="nonzero">
            <g id="ISEMS">
                <g id="noun_solar-panel_1832989" transform="translate(36.000000, 51.000000)">
                    <path d="M78.8661148,6.8342202e-14 L36.3743115,6.8342202e-14 C35.8994474,-0.000471342022 35.4604812,0.257425482 35.2230492,0.676377555 L34.9256066,1.20124654 L33.5459508,3.62132543 L21.4238361,25.0259695 C21.1866382,25.4445081 21.186635,25.9601682 21.4238276,26.3787098 C21.6610203,26.7972515 22.0993746,27.05509 22.5737705,27.0551022 L46.4754098,27.0551022 L46.4754098,45.9936738 L0,45.9936738 L0,48.699184 L79.6721311,48.699184 L79.6721311,32.4661226 C79.6721311,31.7190167 79.0776239,31.1133675 78.3442623,31.1133675 L77.0163934,31.1133675 L77.0163934,29.7606124 L74.3606557,29.7606124 L74.3606557,31.1133675 L67.7213115,31.1133675 L67.7213115,29.7606124 L65.0655738,29.7606124 L65.0655738,31.1133675 L63.7377049,31.1133675 C63.0043433,31.1133675 62.4098361,31.7190167 62.4098361,32.4661226 L62.4098361,45.9936738 L54.442623,45.9936738 L54.442623,27.0551022 L65.0655738,27.0551022 C65.5399635,27.05509 65.9783132,26.7972579 66.2155082,26.3787246 L80.0160492,2.02913266 C80.2532471,1.61059409 80.2532502,1.09493408 80.0160577,0.676392435 C79.778865,0.257850794 79.3405106,1.22772215e-05 78.8661148,6.8342202e-14 Z M53.1147541,24.3495919 L46.119541,24.3495919 L49.186918,18.9385715 L56.7424918,18.9385715 L53.6751148,24.3495919 L53.1147541,24.3495919 Z M58.2761803,16.2330614 L50.7245902,16.2330614 L53.7919672,10.8220409 L61.347541,10.8220409 L58.2761803,16.2330614 Z M64.4096066,10.8220409 L71.9704918,10.8220409 L68.9044426,16.2330614 L61.347541,16.2330614 L64.4096066,10.8220409 Z M55.3203443,8.11653066 L58.3863934,2.70551022 L65.9419672,2.70551022 L62.875918,8.11653066 L55.3203443,8.11653066 Z M52.2529672,8.11653066 L44.6973934,8.11653066 L47.7634426,2.70551022 L55.3190164,2.70551022 L52.2529672,8.11653066 Z M41.6300164,8.11653066 L34.0744426,8.11653066 L37.1404918,2.70551022 L44.6960656,2.70551022 L41.6300164,8.11653066 Z M32.5407541,10.8220409 L40.1016393,10.8220409 L37.0355902,16.2330614 L29.4786885,16.2330614 L32.5407541,10.8220409 Z M43.1637049,10.8220409 L50.7245902,10.8220409 L47.658541,16.2330614 L40.1016393,16.2330614 L43.1637049,10.8220409 Z M46.119541,18.9385715 L43.0521639,24.3495919 L35.4965902,24.3495919 L38.5639672,18.9385715 L46.119541,18.9385715 Z M59.8098689,18.9385715 L67.3654426,18.9385715 L64.2980656,24.3495919 L56.7424918,24.3495919 L59.8098689,18.9385715 Z M73.4988689,8.11653066 L65.9432951,8.11653066 L69.0093443,2.70551022 L76.564918,2.70551022 L73.4988689,8.11653066 Z M27.9410164,18.9385715 L35.4965902,18.9385715 L32.4292131,24.3495919 L24.8736393,24.3495919 L27.9410164,18.9385715 Z M65.0655738,33.8188777 L77.0163934,33.8188777 L77.0163934,45.9936738 L65.0655738,45.9936738 L65.0655738,33.8188777 Z M51.7868852,45.9936738 L49.1311475,45.9936738 L49.1311475,27.0551022 L51.7868852,27.0551022 L51.7868852,45.9936738 Z" id="Shape"></path>
                    <path d="M73.0327869,39.2298982 L71.5296393,39.2298982 L72.8097049,37.2751671 L70.6001311,35.7736089 L67.9443934,39.8318742 C67.6725359,40.2469788 67.6470811,40.7808435 67.8781673,41.2208359 C68.1092537,41.6608282 68.5593469,41.9354831 69.0491803,41.9354084 L70.5523279,41.9354084 L69.2722623,43.8901395 L71.4818361,45.3916976 L74.1375738,41.3334324 C74.4094313,40.9183277 74.4348861,40.3844631 74.2037999,39.9444708 C73.9727135,39.5044783 73.5226203,39.2298234 73.0327869,39.2298982 Z" id="Shape"></path>
                </g>
                <g id="noun_wifi_1101870">
                    <path d="M51.4263098,7.85306443 L51.4263098,96.404507 L53.6646198,96.404507 L54.0490484,8.28999527 C54.054072,7.86488365 53.9153971,7.45543813 53.6646198,7.15494795 C53.4138425,6.85445776 53.0723235,6.68851803 52.7178754,6.69493696 C51.8499929,6.88831817 51.4194711,7.27436065 51.4263098,7.85306443 Z" id="Shape"></path>
                    <path d="M56.5029062,5.35581108 C55.9946052,5.3573488 55.5480929,5.69585246 55.406254,6.18718943 C55.2644153,6.67852637 55.4611719,7.2051899 55.8894961,7.48069577 C56.1895853,7.67981849 56.470314,7.90842185 56.7342022,8.16989042 C56.7354051,8.17104358 56.7365508,8.17219674 56.7377537,8.17334992 C58.7521145,10.1949918 58.848001,13.3596909 57.0502725,15.4982924 C56.7802977,15.8121225 56.6987388,16.2478032 56.8367302,16.6390165 C56.9747216,17.0302298 57.3109629,17.3165877 57.7170964,17.3887752 C58.12323,17.4609627 58.5365647,17.307837 58.7993132,16.9878525 C61.3524484,13.9505609 61.1983655,9.38842225 58.3501818,6.53513531 C58.3489241,6.53397933 58.347664,6.53282617 58.3464013,6.53167582 C57.9776908,6.16564405 57.5781065,5.83908511 57.1503405,5.55527398 C56.9594232,5.42464236 56.7337532,5.35511747 56.5029062,5.35581108 Z" id="Shape"></path>
                    <path d="M59.1640538,2.67829632 C58.6488906,2.69146951 58.1985542,3.02295995 58.041405,3.50467264 C57.8842557,3.98638535 58.0546658,4.51295849 58.4662223,4.8173729 C58.793202,5.06639736 59.1085471,5.33394251 59.3935334,5.61508974 C59.3951044,5.61668007 59.3966799,5.6182661 59.3982599,5.61984779 C62.9208056,9.05609372 63.0329095,14.5180259 59.7626278,18.0866825 C59.4656923,18.4015278 59.3645036,18.848919 59.4978163,19.2575084 C59.6311289,19.6660978 59.9782839,19.9725681 60.4063234,20.0595432 C60.8343629,20.1465184 61.2769555,20.0005203 61.5645913,19.6774651 C65.6793485,15.187323 65.5271902,8.2500265 61.1114493,3.93743102 L61.1114493,3.93725259 C61.1098738,3.93546832 61.108177,3.93427881 61.106541,3.93249453 C60.735265,3.56671349 60.3439923,3.23682598 59.9518106,2.93813939 C59.7285849,2.7630676 59.449514,2.67103886 59.1638719,2.67830227 L59.1640538,2.67829632 Z" id="Shape"></path>
                    <path d="M61.859393,1.15451702e-05 C61.3289953,-0.00221386211 60.8551407,0.317469045 60.6781338,0.79694038 C60.501127,1.27641171 60.659687,1.81078978 61.0734038,2.12907692 C61.4185954,2.40238074 61.7453894,2.67817844 62.0443683,2.96634983 C62.0457161,2.96774838 62.0470673,2.96914383 62.048422,2.97053619 C67.1807696,7.87125596 67.3078699,15.6930474 62.4362715,20.7390341 C62.1247481,21.0511842 62.01299,21.5001809 62.1439142,21.9136032 C62.2748384,22.3270254 62.6280911,22.6406024 63.0680185,22.7339164 C63.5079458,22.8272302 63.9661566,22.6857744 64.2666913,22.3638697 C70.0289902,16.3952803 69.8710813,7.06881361 63.81261,1.27954396 C63.8112379,1.27834785 63.809866,1.27715175 63.8084939,1.27535759 C63.4318702,0.912698814 63.0439584,0.587394369 62.6615971,0.284648448 C62.4375393,0.102063737 62.1534211,0.00125331393 61.859393,1.15451701e-05 Z" id="Shape"></path>
                    <g id="Group" transform="translate(6.865497, 66.495933) rotate(-51.000000) translate(-6.865497, -66.495933) translate(3.365497, 60.495933)">
                        <path d="M0.6532245,3.00000256 C0.362539877,3.00076819 0.107190603,3.16930986 0.0260765285,3.41394753 C-0.055037471,3.65858519 0.0574827034,3.92081203 0.302430602,4.05798697 C0.474044101,4.15713057 0.6345858,4.27095265 0.7854969,4.40113839 C0.7861848,4.40171255 0.78684,4.40228671 0.7875279,4.40286088 C1.93949047,5.40944046 1.99432559,6.98515058 0.966249599,8.04996461 C0.811857749,8.2062213 0.765216225,8.42314759 0.844130099,8.61793348 C0.923043899,8.81271938 1.1153319,8.95529758 1.3475895,8.99123987 C1.57984717,9.02718216 1.81622294,8.95094059 1.96648222,8.79161964 C3.42655641,7.27934597 3.33844026,5.00784786 1.70963519,3.58719049 C1.70891594,3.58661493 1.70819534,3.58604076 1.70747324,3.585468 C1.4966169,3.40322004 1.26810465,3.24062568 1.02347595,3.09931555 C0.914295149,3.03427379 0.7852401,2.99965721 0.6532245,3.00000256 Z" id="Shape"></path>
                        <path d="M2.54005461,1.00020338 C2.30436747,1.00701461 2.09833858,1.17841244 2.0264428,1.42748301 C1.95454702,1.67655358 2.03250964,1.94881933 2.22079672,2.10621745 C2.37038991,2.23497607 2.51466033,2.37331085 2.64504153,2.51867862 C2.64576027,2.5195009 2.64648105,2.52032097 2.64720393,2.52113878 C4.25876857,4.29785699 4.31005609,7.12196058 2.81390223,8.967142 C2.67805425,9.12993344 2.63176041,9.36125798 2.69275095,9.57252001 C2.75374149,9.78378198 2.91256491,9.94224312 3.10839296,9.98721376 C3.30422102,10.0321845 3.50670716,9.95669586 3.63830054,9.78965951 C5.52080189,7.46802204 5.45118947,3.88107824 3.43098806,1.65124164 L3.43098806,1.65114938 C3.43026728,1.65022682 3.429491,1.64961178 3.4287425,1.64868922 C3.25888376,1.45956136 3.07987646,1.28899232 2.90045337,1.13455579 C2.79832761,1.04403455 2.67065265,0.9964509 2.53997139,1.00020646 L2.54005461,1.00020338 Z" id="Shape"></path>
                        <path d="M3.63685813,6.08650279e-06 C3.36723926,-0.00116712682 3.12636319,0.167366629 3.03638466,0.420139308 C2.94640619,0.672911986 3.02700753,0.954630966 3.23731359,1.12242889 C3.41278599,1.26651203 3.57890626,1.41190993 3.7308872,1.56383112 C3.73157233,1.56456842 3.7322592,1.56530409 3.73294786,1.56603813 C6.34189121,4.14965048 6.40650054,8.27322376 3.93010466,10.9334194 C3.77174693,11.097982 3.7149366,11.3346887 3.78148973,11.552641 C3.84804286,11.7705932 4.027613,11.935908 4.25124273,11.9851022 C4.47487247,12.0342964 4.70779627,11.9597222 4.86056807,11.7900172 C7.78973668,8.64343416 7.70946635,3.72661059 4.6297434,0.674563274 C4.62904593,0.673932699 4.62834853,0.673302125 4.62765107,0.672356263 C4.43620067,0.481166042 4.2390122,0.309668665 4.0446452,0.150063926 C3.93074913,0.0538070211 3.7863224,0.000660735056 3.63685813,6.08650272e-06 Z" id="Shape"></path>
                    </g>
                    <g id="Group" transform="translate(159.865497, 69.495933) scale(-1, 1) rotate(-51.000000) translate(-159.865497, -69.495933) translate(156.365497, 63.495933)">
                        <path d="M0.6532245,3.00000256 C0.362539877,3.00076819 0.107190603,3.16930986 0.0260765285,3.41394753 C-0.055037471,3.65858519 0.0574827034,3.92081203 0.302430602,4.05798697 C0.474044101,4.15713057 0.6345858,4.27095265 0.7854969,4.40113839 C0.7861848,4.40171255 0.78684,4.40228671 0.7875279,4.40286088 C1.93949047,5.40944046 1.99432559,6.98515058 0.966249599,8.04996461 C0.811857749,8.2062213 0.765216225,8.42314759 0.844130099,8.61793348 C0.923043899,8.81271938 1.1153319,8.95529758 1.3475895,8.99123987 C1.57984717,9.02718216 1.81622294,8.95094059 1.96648222,8.79161964 C3.42655641,7.27934597 3.33844026,5.00784786 1.70963519,3.58719049 C1.70891594,3.58661493 1.70819534,3.58604076 1.70747324,3.585468 C1.4966169,3.40322004 1.26810465,3.24062568 1.02347595,3.09931555 C0.914295149,3.03427379 0.7852401,2.99965721 0.6532245,3.00000256 Z" id="Shape"></path>
                        <path d="M2.54005461,1.00020338 C2.30436747,1.00701461 2.09833858,1.17841244 2.0264428,1.42748301 C1.95454702,1.67655358 2.03250964,1.94881933 2.22079672,2.10621745 C2.37038991,2.23497607 2.51466033,2.37331085 2.64504153,2.51867862 C2.64576027,2.5195009 2.64648105,2.52032097 2.64720393,2.52113878 C4.25876857,4.29785699 4.31005609,7.12196058 2.81390223,8.967142 C2.67805425,9.12993344 2.63176041,9.36125798 2.69275095,9.57252001 C2.75374149,9.78378198 2.91256491,9.94224312 3.10839296,9.98721376 C3.30422102,10.0321845 3.50670716,9.95669586 3.63830054,9.78965951 C5.52080189,7.46802204 5.45118947,3.88107824 3.43098806,1.65124164 L3.43098806,1.65114938 C3.43026728,1.65022682 3.429491,1.64961178 3.4287425,1.64868922 C3.25888376,1.45956136 3.07987646,1.28899232 2.90045337,1.13455579 C2.79832761,1.04403455 2.67065265,0.9964509 2.53997139,1.00020646 L2.54005461,1.00020338 Z" id="Shape"></path>
                        <path d="M3.63685813,6.08650279e-06 C3.36723926,-0.00116712682 3.12636319,0.167366629 3.03638466,0.420139308 C2.94640619,0.672911986 3.02700753,0.954630966 3.23731359,1.12242889 C3.41278599,1.26651203 3.57890626,1.41190993 3.7308872,1.56383112 C3.73157233,1.56456842 3.7322592,1.56530409 3.73294786,1.56603813 C6.34189121,4.14965048 6.40650054,8.27322376 3.93010466,10.9334194 C3.77174693,11.097982 3.7149366,11.3346887 3.78148973,11.552641 C3.84804286,11.7705932 4.027613,11.935908 4.25124273,11.9851022 C4.47487247,12.0342964 4.70779627,11.9597222 4.86056807,11.7900172 C7.78973668,8.64343416 7.70946635,3.72661059 4.6297434,0.674563274 C4.62904593,0.673932699 4.62834853,0.673302125 4.62765107,0.672356263 C4.43620067,0.481166042 4.2390122,0.309668665 4.0446452,0.150063926 C3.93074913,0.0538070211 3.7863224,0.000660735056 3.63685813,6.08650272e-06 Z" id="Shape"></path>
                    </g>
                    <g id="Group" transform="translate(215.865497, 69.495933) scale(-1, 1) rotate(-51.000000) translate(-215.865497, -69.495933) translate(212.365497, 63.495933)">
                        <path d="M0.6532245,3.00000256 C0.362539877,3.00076819 0.107190603,3.16930986 0.0260765285,3.41394753 C-0.055037471,3.65858519 0.0574827034,3.92081203 0.302430602,4.05798697 C0.474044101,4.15713057 0.6345858,4.27095265 0.7854969,4.40113839 C0.7861848,4.40171255 0.78684,4.40228671 0.7875279,4.40286088 C1.93949047,5.40944046 1.99432559,6.98515058 0.966249599,8.04996461 C0.811857749,8.2062213 0.765216225,8.42314759 0.844130099,8.61793348 C0.923043899,8.81271938 1.1153319,8.95529758 1.3475895,8.99123987 C1.57984717,9.02718216 1.81622294,8.95094059 1.96648222,8.79161964 C3.42655641,7.27934597 3.33844026,5.00784786 1.70963519,3.58719049 C1.70891594,3.58661493 1.70819534,3.58604076 1.70747324,3.585468 C1.4966169,3.40322004 1.26810465,3.24062568 1.02347595,3.09931555 C0.914295149,3.03427379 0.7852401,2.99965721 0.6532245,3.00000256 Z" id="Shape"></path>
                        <path d="M2.54005461,1.00020338 C2.30436747,1.00701461 2.09833858,1.17841244 2.0264428,1.42748301 C1.95454702,1.67655358 2.03250964,1.94881933 2.22079672,2.10621745 C2.37038991,2.23497607 2.51466033,2.37331085 2.64504153,2.51867862 C2.64576027,2.5195009 2.64648105,2.52032097 2.64720393,2.52113878 C4.25876857,4.29785699 4.31005609,7.12196058 2.81390223,8.967142 C2.67805425,9.12993344 2.63176041,9.36125798 2.69275095,9.57252001 C2.75374149,9.78378198 2.91256491,9.94224312 3.10839296,9.98721376 C3.30422102,10.0321845 3.50670716,9.95669586 3.63830054,9.78965951 C5.52080189,7.46802204 5.45118947,3.88107824 3.43098806,1.65124164 L3.43098806,1.65114938 C3.43026728,1.65022682 3.429491,1.64961178 3.4287425,1.64868922 C3.25888376,1.45956136 3.07987646,1.28899232 2.90045337,1.13455579 C2.79832761,1.04403455 2.67065265,0.9964509 2.53997139,1.00020646 L2.54005461,1.00020338 Z" id="Shape"></path>
                        <path d="M3.63685813,6.08650279e-06 C3.36723926,-0.00116712682 3.12636319,0.167366629 3.03638466,0.420139308 C2.94640619,0.672911986 3.02700753,0.954630966 3.23731359,1.12242889 C3.41278599,1.26651203 3.57890626,1.41190993 3.7308872,1.56383112 C3.73157233,1.56456842 3.7322592,1.56530409 3.73294786,1.56603813 C6.34189121,4.14965048 6.40650054,8.27322376 3.93010466,10.9334194 C3.77174693,11.097982 3.7149366,11.3346887 3.78148973,11.552641 C3.84804286,11.7705932 4.027613,11.935908 4.25124273,11.9851022 C4.47487247,12.0342964 4.70779627,11.9597222 4.86056807,11.7900172 C7.78973668,8.64343416 7.70946635,3.72661059 4.6297434,0.674563274 C4.62904593,0.673932699 4.62834853,0.673302125 4.62765107,0.672356263 C4.43620067,0.481166042 4.2390122,0.309668665 4.0446452,0.150063926 C3.93074913,0.0538070211 3.7863224,0.000660735056 3.63685813,6.08650272e-06 Z" id="Shape"></path>
                    </g>
                    <path d="M48.3172616,5.56020212 C47.9046268,5.83829014 47.5018481,6.1605601 47.1278924,6.53150743 C44.281165,9.38800299 44.1202025,13.9465002 46.6750313,16.9832912 C46.9371188,17.3056883 47.3517266,17.4608319 47.7595942,17.3891277 C48.1674619,17.3174236 48.5051608,17.0300225 48.6429731,16.6373221 C48.7807853,16.2446215 48.6972794,15.8076914 48.4245318,15.4943667 C46.6271265,13.3578477 46.7278642,10.1935597 48.7371738,8.1725501 C48.9984729,7.91370594 49.2886524,7.68017447 49.5929856,7.47507369 C50.0247462,7.19293769 50.2164334,6.65583056 50.061631,6.16193025 C49.9068287,5.66802995 49.4435411,5.33859042 48.928965,5.35650183 C48.7099095,5.36429582 48.4976178,5.43492602 48.3172616,5.56020212 Z" id="Shape"></path>
                    <path d="M46.2859538,2.67791362 C46.0129908,2.67677943 45.7476418,2.76624993 45.5329391,2.93181546 C45.1222478,3.23940385 44.7357184,3.57284816 44.3678403,3.92922197 C44.366444,3.93060647 44.3650512,3.93199434 44.3636619,3.93338556 C39.9532361,8.24583874 39.7929079,15.1860246 43.9068269,19.6786424 C44.1944532,20.0010489 44.6364352,20.1465226 45.0637632,20.0594358 C45.4910912,19.9723491 45.8376687,19.6661717 45.9709678,19.2579832 C46.1042668,18.8497948 46.0036695,18.4027312 45.7076433,18.0877455 C42.4412489,14.5206943 42.5576982,9.06001148 46.0684969,5.62317377 C46.0691025,5.62275741 46.0693447,5.62257897 46.0698292,5.62198418 C46.0707375,5.62138938 46.0715853,5.62019978 46.0724936,5.61960498 C46.3731545,5.32864121 46.6804766,5.0644434 47.0014238,4.82406135 C47.4206317,4.51910157 47.5939348,3.98474911 47.4315577,3.49781218 C47.2691805,3.01087525 46.807611,2.68077364 46.2859538,2.67850842 L46.2859538,2.67791362 Z" id="Shape"></path>
                    <path d="M43.5782349,0.000710102257 C43.2971536,0.00998738135 43.0275854,0.11004351 42.8132567,0.284648533 C42.4237804,0.592979743 42.0438491,0.91829857 41.670406,1.27141966 C41.6689676,1.27281198 41.6675327,1.27420768 41.6661014,1.27560675 C35.6012131,7.06591939 35.4489224,16.3962957 41.2071893,22.3671317 C41.5082364,22.687115 41.9655105,22.8271309 42.4042665,22.7336728 C42.8430224,22.6402148 43.1954479,22.3277273 43.3268651,21.9156261 C43.4582823,21.5035248 43.3483799,21.0555024 43.0391567,20.7427686 C38.1732479,15.6971895 38.2930479,7.87643802 43.4224569,2.97493061 C43.4230807,2.97445208 43.4235174,2.97433246 43.4240165,2.97373431 C43.4249523,2.972538 43.4258257,2.97193983 43.4267615,2.97074352 C43.7420608,2.672892 44.0637858,2.3970825 44.4019184,2.12939595 C44.8210947,1.80691266 44.9778046,1.26331277 44.7908669,0.780200377 C44.6039292,0.297087987 44.1153516,-0.01697384 43.5782349,0.000710102257 Z" id="Shape"></path>
                </g>
            </g>
        </g>
        <g id="noun_Tent_1274061_000000" transform="translate(395.000000, 76.000000)" fill="#000000">
            <path d="M13.1236449,0 C12.6535661,4.72873736e-05 12.2364327,0.301080426 12.0886509,0.746925407 C9.45575124,8.69191308 5.34772339,15.3353577 0.278030055,21.1838994 C0.0153352311,21.4770544 -0.0687213995,21.8889577 0.0581324711,22.2614649 C0.184986342,22.6339722 0.50303484,22.9091878 0.890167919,22.9814466 C1.277301,23.0537054 1.67334969,22.9117769 1.92625691,22.6101524 C2.57334621,21.8635811 3.20587891,21.1033921 3.8228191,20.3288775 L3.8228191,21.896917 C3.82282059,22.498516 4.31090231,22.9862333 4.91304116,22.986325 L42.8639129,22.986325 C43.4660517,22.9862333 43.9541334,22.498516 43.9541349,21.896917 L43.9541349,20.1744539 C44.6454939,21.0100843 45.3588787,21.8293192 46.0938532,22.632104 C46.3549882,22.9262461 46.7545003,23.0569826 47.1392065,22.9741858 C47.5239126,22.8913889 47.8341161,22.6079067 47.9508771,22.2324334 C48.0676381,21.8569601 47.9728383,21.4477597 47.7028262,21.1617299 C42.355466,15.3208141 38.215817,8.69959341 35.9184835,0.785904427 C35.7833188,0.320368025 35.3565489,5.35895009e-05 34.8713862,1.23851358e-13 L13.1236449,1.23851358e-13 Z M14.4770861,2.17864183 L34.0595396,2.17864183 C35.6424524,7.31277149 37.9790398,11.9242576 40.8812647,16.1232176 L21.9762132,16.1232176 C18.4006752,12.5477803 15.788711,8.26336174 14.4770861,2.17864183 Z M12.0770383,6.81833275 L12.0770383,20.8076723 L6.00326323,20.8076723 L6.00326323,17.4351373 C8.32992808,14.1661505 10.3791988,10.6459462 12.0770383,6.81833275 Z M14.2574824,8.65262358 C15.7812963,12.1663241 17.8552643,15.0618618 20.3367094,17.5660297 L20.3367094,20.8076723 L14.2574824,20.8076723 L14.2574824,8.65262358 Z M22.5171535,18.3018703 L41.7736908,18.3018703 L41.7736908,20.8076723 L22.5171535,20.8076723 L22.5171535,18.3018703 Z" id="Shape"></path>
        </g>
        <g id="noun_Tent_1274061_000000" transform="translate(341.000000, 77.000000)" fill="#000000">
            <path d="M13.1236449,0 C12.6535661,4.72873736e-05 12.2364327,0.301080426 12.0886509,0.746925407 C9.45575124,8.69191308 5.34772339,15.3353577 0.278030055,21.1838994 C0.0153352311,21.4770544 -0.0687213995,21.8889577 0.0581324711,22.2614649 C0.184986342,22.6339722 0.50303484,22.9091878 0.890167919,22.9814466 C1.277301,23.0537054 1.67334969,22.9117769 1.92625691,22.6101524 C2.57334621,21.8635811 3.20587891,21.1033921 3.8228191,20.3288775 L3.8228191,21.896917 C3.82282059,22.498516 4.31090231,22.9862333 4.91304116,22.986325 L42.8639129,22.986325 C43.4660517,22.9862333 43.9541334,22.498516 43.9541349,21.896917 L43.9541349,20.1744539 C44.6454939,21.0100843 45.3588787,21.8293192 46.0938532,22.632104 C46.3549882,22.9262461 46.7545003,23.0569826 47.1392065,22.9741858 C47.5239126,22.8913889 47.8341161,22.6079067 47.9508771,22.2324334 C48.0676381,21.8569601 47.9728383,21.4477597 47.7028262,21.1617299 C42.355466,15.3208141 38.215817,8.69959341 35.9184835,0.785904427 C35.7833188,0.320368025 35.3565489,5.35895009e-05 34.8713862,1.23851358e-13 L13.1236449,1.23851358e-13 Z M14.4770861,2.17864183 L34.0595396,2.17864183 C35.6424524,7.31277149 37.9790398,11.9242576 40.8812647,16.1232176 L21.9762132,16.1232176 C18.4006752,12.5477803 15.788711,8.26336174 14.4770861,2.17864183 Z M12.0770383,6.81833275 L12.0770383,20.8076723 L6.00326323,20.8076723 L6.00326323,17.4351373 C8.32992808,14.1661505 10.3791988,10.6459462 12.0770383,6.81833275 Z M14.2574824,8.65262358 C15.7812963,12.1663241 17.8552643,15.0618618 20.3367094,17.5660297 L20.3367094,20.8076723 L14.2574824,20.8076723 L14.2574824,8.65262358 Z M22.5171535,18.3018703 L41.7736908,18.3018703 L41.7736908,20.8076723 L22.5171535,20.8076723 L22.5171535,18.3018703 Z" id="Shape"></path>
        </g>
        <g id="noun_Tent_1196941_000000" transform="translate(146.000000, 76.000000)" fill="#000000">
            <path d="M45.7361746,0.865805902 L57.7394919,21.8304847 C58.3908459,23.0428676 57.753937,23.9894088 56.569974,23.9950159 C38.1261283,24.0062301 19.7400017,23.9950159 1.29301307,23.9950159 C0.415010874,23.9945542 -0.267332339,22.9189181 0.102932601,22.1190844 L9.99286734,0.76272796 C10.2024632,0.310236506 10.6861684,0.000230879815 11.1829485,0 L44.1972565,0 C45.0105816,0.00982888355 45.3423655,0.260920577 45.7361746,0.865805902 Z M42.4327361,2.63862646 L12.0241689,2.63862646 L3.36540081,21.3563895 L33.7738281,21.3563895 L42.4327361,2.63862646 Z M44.6076301,4.18470324 L36.6669862,21.3563895 L37.9596201,21.3563895 L43.6638333,8.26632854 C43.8715906,7.77283943 44.4032227,7.43686972 44.9359243,7.46236544 C45.3854991,7.48776222 45.8130656,7.763281 46.023429,8.1632506 L53.1023785,21.3563895 L54.4360521,21.3563895 L44.6076301,4.18470324 Z M44.9975068,11.7913686 L40.8322117,21.3563895 L50.1271416,21.3563895 L44.9975068,11.7913686 Z" id="Shape"></path>
        </g>
        <g id="Trees" transform="translate(48.000000, 12.000000)" fill="#000000">
            <g id="Group-3">
                <path d="M50.2816258,14.6936029 C48.9842846,14.1012335 47.9262497,12.9164949 47.4570588,11.6113868 C44.6324918,4.50295474 37.9159015,0 30.3805824,0 C22.8452634,0 16.128202,4.61858523 13.3041061,11.6113868 C12.8348681,12.9164949 11.7721695,13.9808641 10.4795391,14.6936029 C4.12190809,17.775819 0,24.2918817 0,31.4007876 C0,41.5914358 8.24381617,50 18.4885243,50 C19.1969743,50 19.6662123,49.5279527 19.6662123,48.8152613 C19.6662123,48.1025699 19.1969743,47.6305227 18.4885243,47.6305227 C9.65586411,47.6305227 2.35537605,40.4017212 2.35537605,31.4007876 C2.35537605,25.2410943 5.88844012,19.4325576 11.5422848,16.8273172 C13.4284699,15.8786022 14.8407534,14.3374704 15.5445398,12.5603624 C18.0195689,6.40066914 23.9080091,2.36971429 30.5,2.36971429 C37.0969372,2.36971429 42.9858484,6.39593019 45.4554602,12.5603624 C46.1639102,14.4578399 47.6911832,15.994209 49.4577152,16.8273172 C54.9919068,19.553164 58.644624,25.2408574 58.644624,31.4007876 C58.644624,40.2863276 51.4588427,47.6305227 42.5114757,47.6305227 C41.8030257,47.6305227 41.3337877,48.1025699 41.3337877,48.8152613 C41.3337877,49.5279527 41.8030257,50 42.5114757,50 C52.641477,50 61,41.7068293 61,31.4007876 C60.765381,24.2877351 56.6434965,17.771554 50.2811547,14.6936029 L50.2816258,14.6936029 Z" id="Fill-1"></path>
                <path d="M37.7569157,28.7352523 L31.0512908,37.5401773 L31.0512908,22.1901121 C31.0512908,21.4741882 30.5743218,21 29.8541998,21 C29.1340777,21 28.6571088,21.4741882 28.6571088,22.1901121 L28.6571088,43.9703527 L23.0317388,38.2568628 C22.5547698,37.7826745 21.8346478,37.7826745 21.3577267,38.2568628 C20.8807578,38.731051 20.8807578,39.4469748 21.3577267,39.9211155 L28.4186482,46.9408724 C28.5402248,47.0617402 28.6571327,47.1779665 28.7787093,47.1779665 L28.7787093,85.6197759 L22.7932543,85.6197759 C22.0731322,85.6197759 21.5961633,86.0939641 21.5961633,86.8098879 C21.5961633,87.5258118 22.0731322,88 22.7932543,88 L37.1583463,88 C37.8784683,88 38.3554373,87.5258118 38.3554373,86.8098879 C38.3554373,86.0939641 37.8784683,85.6197759 37.1583463,85.6197759 L31.1728913,85.6197759 L31.1728913,41.468999 L39.7909888,30.1629345 C40.1510498,29.6887463 40.0294732,28.8519071 39.5525043,28.4986818 C38.9539588,28.1407199 38.2337889,28.1407199 37.7568678,28.7357759 L37.7569157,28.7352523 Z" id="Fill-2"></path>
            </g>
            <g id="Group-3" transform="translate(61.000000, 39.000000)">
                <path d="M28.0258242,8.22841762 C27.302716,7.89669079 26.7129916,7.23323713 26.4514754,6.50237659 C24.8771266,2.52165465 21.1334533,0 16.9334394,0 C12.7334255,0 8.98948962,2.58640773 7.41540339,6.50237659 C7.15386089,7.23323713 6.5615371,7.8292839 5.84105459,8.22841762 C2.29745697,9.95445865 0,13.6034538 0,17.5844411 C0,23.291204 4.59491393,28 10.3050791,28 C10.6999529,28 10.9614954,27.7356535 10.9614954,27.3365463 C10.9614954,26.9374392 10.6999529,26.6730927 10.3050791,26.6730927 C5.38195705,26.6730927 1.31283255,22.6249639 1.31283255,17.5844411 C1.31283255,14.1350128 3.28208138,10.8822322 6.43340464,9.42329765 C7.48472095,8.89201723 8.27189534,8.02898345 8.66416971,7.03380296 C10.0436942,3.58437472 13.3257755,1.32704 17,1.32704 C20.6769814,1.32704 23.9593254,3.5817209 25.3358303,7.03380296 C25.7307041,8.09639034 26.5819709,8.95675704 27.5665954,9.42329765 C30.6512267,10.9497718 32.6871674,14.1348801 32.6871674,17.5844411 C32.6871674,22.5603435 28.6819779,26.6730927 23.6949209,26.6730927 C23.3000471,26.6730927 23.0385046,26.9374392 23.0385046,27.3365463 C23.0385046,27.7356535 23.3000471,28 23.6949209,28 C29.3411511,28 34,23.3558244 34,17.5844411 C33.8692287,13.6011317 31.5717849,9.95207021 28.0255616,8.22841762 L28.0258242,8.22841762 Z" id="Fill-1"></path>
                <path d="M21.7013722,15.387158 L17.8191683,20.3809961 L17.8191683,11.6749889 C17.8191683,11.2689426 17.5430284,11 17.1261157,11 C16.7092029,11 16.433063,11.2689426 16.433063,11.6749889 L16.433063,24.0279612 L13.1762698,20.7874744 C12.9001299,20.5185318 12.4832171,20.5185318 12.2071049,20.7874744 C11.930965,21.056417 11.930965,21.4624633 12.2071049,21.7313789 L16.2950069,25.7127336 C16.3653933,25.7812855 16.4330768,25.8472049 16.5034633,25.8472049 L16.5034633,47.6500222 L13.0381998,47.6500222 C12.6212871,47.6500222 12.3451472,47.9189647 12.3451472,48.3250111 C12.3451472,48.7310574 12.6212871,49 13.0381998,49 L21.354832,49 C21.7717448,49 22.0478847,48.7310574 22.0478847,48.3250111 C22.0478847,47.9189647 21.7717448,47.6500222 21.354832,47.6500222 L17.8895686,47.6500222 L17.8895686,22.609283 L22.8789935,16.1968882 C23.0874499,15.9279456 23.0170635,15.4533204 22.7409235,15.2529837 C22.3943972,15.0499605 21.9774567,15.0499605 21.7013445,15.387455 L21.7013722,15.387158 Z" id="Fill-2"></path>
            </g>
        </g>
        <g id="Tree" transform="translate(462.000000, 50.000000)" fill="#000000">
            <path d="M28.0258242,8.22841762 C27.302716,7.89669079 26.7129916,7.23323713 26.4514754,6.50237659 C24.8771266,2.52165465 21.1334533,0 16.9334394,0 C12.7334255,0 8.98948962,2.58640773 7.41540339,6.50237659 C7.15386089,7.23323713 6.5615371,7.8292839 5.84105459,8.22841762 C2.29745697,9.95445865 0,13.6034538 0,17.5844411 C0,23.291204 4.59491393,28 10.3050791,28 C10.6999529,28 10.9614954,27.7356535 10.9614954,27.3365463 C10.9614954,26.9374392 10.6999529,26.6730927 10.3050791,26.6730927 C5.38195705,26.6730927 1.31283255,22.6249639 1.31283255,17.5844411 C1.31283255,14.1350128 3.28208138,10.8822322 6.43340464,9.42329765 C7.48472095,8.89201723 8.27189534,8.02898345 8.66416971,7.03380296 C10.0436942,3.58437472 13.3257755,1.32704 17,1.32704 C20.6769814,1.32704 23.9593254,3.5817209 25.3358303,7.03380296 C25.7307041,8.09639034 26.5819709,8.95675704 27.5665954,9.42329765 C30.6512267,10.9497718 32.6871674,14.1348801 32.6871674,17.5844411 C32.6871674,22.5603435 28.6819779,26.6730927 23.6949209,26.6730927 C23.3000471,26.6730927 23.0385046,26.9374392 23.0385046,27.3365463 C23.0385046,27.7356535 23.3000471,28 23.6949209,28 C29.3411511,28 34,23.3558244 34,17.5844411 C33.8692287,13.6011317 31.5717849,9.95207021 28.0255616,8.22841762 L28.0258242,8.22841762 Z" id="Fill-1"></path>
            <path d="M21.7013722,15.387158 L17.8191683,20.3809961 L17.8191683,11.6749889 C17.8191683,11.2689426 17.5430284,11 17.1261157,11 C16.7092029,11 16.433063,11.2689426 16.433063,11.6749889 L16.433063,24.0279612 L13.1762698,20.7874744 C12.9001299,20.5185318 12.4832171,20.5185318 12.2071049,20.7874744 C11.930965,21.056417 11.930965,21.4624633 12.2071049,21.7313789 L16.2950069,25.7127336 C16.3653933,25.7812855 16.4330768,25.8472049 16.5034633,25.8472049 L16.5034633,47.6500222 L13.0381998,47.6500222 C12.6212871,47.6500222 12.3451472,47.9189647 12.3451472,48.3250111 C12.3451472,48.7310574 12.6212871,49 13.0381998,49 L21.354832,49 C21.7717448,49 22.0478847,48.7310574 22.0478847,48.3250111 C22.0478847,47.9189647 21.7717448,47.6500222 21.354832,47.6500222 L17.8895686,47.6500222 L17.8895686,22.609283 L22.8789935,16.1968882 C23.0874499,15.9279456 23.0170635,15.4533204 22.7409235,15.2529837 C22.3943972,15.0499605 21.9774567,15.0499605 21.7013445,15.387455 L21.7013722,15.387158 Z" id="Fill-2"></path>
        </g>
        <g id="Group-3" transform="translate(434.000000, 46.000000)" fill="#000000">
            <path d="M5.70074569,4.55296551 L13,3 L13,10.571891 C12.8455527,12.5618544 8.52812425,12.756184 8.52812425,10.571891 C8.52812425,9.11574201 10.8925592,8.63026616 12.1776776,9.35842422 L12.1776776,5.23264564 L6.52321558,6.44611239 L6.52321558,12.4160027 C6.36876827,14.4544439 2,14.6002956 2,12.4160027 C2,11.0083317 4.41577479,10.4743779 5.70089322,11.2509582 L5.70089322,4.55292372 L5.70074569,4.55296551 Z" id="Fill-1"></path>
            <path d="M3.31085864,1.34459489 L9,0 L9,2.06474921 L4.05686584,3.16927429 L4.05686584,8.45075505 C3.91675193,10.4191842 0,10.6114109 0,8.45075505 C0,7.01036374 2.14500491,6.53014143 3.31085864,7.25041977 L3.31085864,1.3451323 L3.31085864,1.34459489 Z" id="Fill-2"></path>
        </g>
    </g>
</svg>