<?xml version="1.0" encoding="UTF-8"?>
<svg width="557px" height="792px" viewBox="0 0 557 792" version="1.1" xmlns="http://www.w3.org/2000/svg" xmlns:xlink="http://www.w3.org/1999/xlink">
    <!-- Generator: Sketch 52.2 (67145) - http://www.bohemiancoding.com/sketch -->
    <title>ISEMS</title>
    <desc>Created with Sketch.</desc>
    <g id="Page-1" stroke="none" stroke-width="1" fill="none" fill-rule="evenodd">
        <g id="Router" transform="translate(232.000000, 138.000000)" fill="#000000">
            <path d="M85.5,50.141 L77.418,50.141 L77.418,12.832 C77.418,11.039 75.961,9.582 74.168,9.582 L73.83597,9.582 C72.04297,9.582 70.58597,11.039 70.58597,12.832 L70.58597,50.137 L15.08597,50.137 L15.08597,12.832 C15.08597,11.039 13.62897,9.582 11.83597,9.582 L11.50003,9.582 C9.70703,9.582 8.25003,11.039 8.25003,12.832 L8.25003,50.137 L3.75003,50.137 C1.95703,50.137 0.50003,51.594 0.50003,53.387 L0.50003,62.2112 C0.50003,64.0042 1.95703,65.4612 3.75003,65.4612 L8.50003,65.4612 L8.50003,69.5784 L77.41803,69.5784 L77.41803,65.4612 L85.50003,65.46511 C87.29303,65.46511 88.75003,64.00811 88.75003,62.21511 L88.75003,53.39091 C88.75003,51.59791 87.29303,50.14091 85.50003,50.14091 L85.5,50.141 Z M73.086,12.832 C73.086,12.41794 73.42194,12.082 73.836,12.082 L74.16803,12.082 C74.58209,12.082 74.91803,12.41794 74.91803,12.832 L74.91803,50.137 L73.08603,50.137 L73.086,12.832 Z M67.2774,52.641 L64.4297,57.7504 L27.8677,57.7504 L25.9654,52.641 L67.2774,52.641 Z M10.7504,12.832 C10.7504,12.41794 11.08634,12.082 11.5004,12.082 L11.83243,12.082 C12.24649,12.082 12.58243,12.41794 12.58243,12.832 L12.58243,50.137 L10.75043,50.137 L10.7504,12.832 Z M74.9184,67.086 L11.0004,67.086 L11.0004,65.4688 L74.9184,65.4688 L74.9184,67.086 Z M86.2504,62.2149 C86.2504,62.62896 85.91446,62.9649 85.5004,62.9649 L3.750399,62.9649 C3.336339,62.9649 3.000399,62.62896 3.000399,62.2149 L3.000399,53.3907 C3.000399,52.97664 3.336339,52.6407 3.750399,52.6407 L23.3014,52.6407 L26.1334,60.2501 L65.9034,60.2501 L70.1417,52.6407 L85.5007,52.6407 C85.91476,52.6407 86.2507,52.97664 86.2507,53.3907 L86.2504,62.2149 Z" id="Fill-1"></path>
            <polygon id="Fill-2" points="9.75 56.617 21.5 56.617 21.5 59.117 9.75 59.117"></polygon>
            <polygon id="Fill-3" points="31.629 53.945 36.5743 53.945 36.5743 56.445 31.629 56.445"></polygon>
            <polygon id="Fill-4" points="39.629 53.945 44.5743 53.945 44.5743 56.445 39.629 56.445"></polygon>
            <polygon id="Fill-5" points="47.629 53.945 52.5743 53.945 52.5743 56.445 47.629 56.445"></polygon>
            <polygon id="Fill-6" points="55.629 53.945 60.5743 53.945 60.5743 56.445 55.629 56.445"></polygon>
            <path d="M11.5,2.582 C16.0508,2.582 19.75,6.2812 19.75,10.832 L22.25,10.832 C22.25,4.9023 17.4297,0.082 11.5,0.082 C5.5703,0.082 0.75,4.9062 0.75,10.832 L3.25,10.832 C3.25,6.2851 6.9531,2.582 11.5,2.582 Z" id="Fill-7"></path>
            <path d="M11.5,3.512 C7.4609,3.512 4.1758,6.7972 4.1758,10.8362 L6.6758,10.8362 C6.6758,8.176 8.8399,6.012 11.5,6.012 C14.1601,6.012 16.3242,8.1761 16.3242,10.8362 L18.8242,10.8362 C18.8242,6.7971 15.539,3.512 11.5,3.512 Z" id="Fill-8"></path>
            <path d="M74,2.582 C78.5508,2.582 82.25,6.2812 82.25,10.832 L84.75,10.832 C84.75,4.9023 79.9297,0.082 74,0.082 C68.0703,0.082 63.25,4.9023 63.25,10.832 L65.75,10.832 C65.75,6.2851 69.4492,2.582 74,2.582 Z" id="Fill-9"></path>
            <path d="M74,3.512 C69.9648,3.512 66.6797,6.7972 66.6797,10.8362 L69.1797,10.8362 C69.1797,8.176 71.3438,6.012 74,6.012 C76.6602,6.012 78.8203,8.1761 78.8203,10.8362 L81.3203,10.8362 C81.3203,6.7971 78.0351,3.512 74,3.512 Z" id="Fill-10"></path>
        </g>
        <g id="Computer" transform="translate(243.000000, 0.000000)" fill="#000000">
            <path d="M68,12.898 L68,5.6988 C68,2.898 65.8008,0.6988 63,0.6988 L5,0.6988 C2.1992,0.6988 0,2.898 0,5.6988 L0,44.3008 C0,46.3008 1.1992,48.1016 3,48.9024 L3,51.3008 L17,51.3008 L17,49.3008 L19.1992,49.3008 L19.1992,51.3008 L33.3982,51.3008 L33.3982,49.3008 L36.4998,49.3008 L36.4998,51.4024 L44.6014,51.4024 L44.6014,49.3008 L62.9024,49.3008 C65.7032,49.3008 67.9024,47.1016 67.9024,44.3008 L70.0001,44.3008 L70.0001,30.1018 L68.0001,30.1018 L68.0001,25.0002 L70.0001,25.0002 L70.0001,12.8982 L68,12.898 Z M21.199,49.3 L21.199,41.1984 L31.398,41.1984 L31.398,49.3 L21.199,49.3 Z M42.601,49.39766 L38.4994,49.39766 L38.4994,41.19456 L42.601,41.19456 L42.601,49.39766 Z M67.999,42.29996 L54.8,42.29996 L54.8,32.10096 L67.999,32.10096 L67.999,42.29996 Z M65.999,30.10096 L52.8,30.10096 L52.8,44.29996 L65.902,44.29996 C65.902,45.90156 64.6012,47.29996 62.902,47.29996 L44.601,47.29996 L44.601,39.19836 L36.4994,39.19836 L36.4994,47.29996 L33.3978,47.29996 L33.3978,39.19836 L19.1988,39.19836 L19.1988,47.29996 L14.9996,47.29996 L14.9996,49.29996 L12.9996,49.29996 L12.9996,47.29996 L10.9996,47.29996 L10.9996,49.29996 L8.9996,49.29996 L8.9996,47.29996 L6.9996,47.29996 L6.9996,49.29996 L4.9996,49.29996 L4.9996,47.29996 C3.398,47.29996 1.9996,45.99916 1.9996,44.29996 L1.9996,5.69795 C1.9996,4.09635 3.3004,2.69795 4.9996,2.69795 L62.9996,2.69795 C64.6012,2.69795 65.9996,3.99875 65.9996,5.69795 L65.9996,12.89716 L54.8006,12.89716 L54.8006,24.99916 L65.9996,24.99916 L65.999,30.10096 Z M67.999,22.99936 L56.8,22.99936 L56.8,14.89776 L67.999,14.89776 L67.999,22.99936 Z" id="Fill-1"></path>
            <path d="M17.301,32.801 C17.301,34.133 15.301,34.133 15.301,32.801 C15.301,31.4651 17.301,31.4651 17.301,32.801" id="Fill-2"></path>
            <polygon id="Fill-3" points="5 15.5 9 15.5 9 18.5 5 18.5"></polygon>
            <polygon id="Fill-4" points="9 34.699 7 34.699 7 32.6013 9 32.6013 9 30.6013 7 30.6013 7 28.4997 9 28.4997 9 26.4997 7 26.4997 7 24.4997 9 24.4997 9 22.4997 5 22.4997 5 36.8007 9 36.8007"></polygon>
            <path d="M9.102,42.301 C9.102,44.9651 5.102,44.9651 5.102,42.301 C5.102,39.633 9.102,39.633 9.102,42.301" id="Fill-5"></path>
            <path d="M7.102,5.801 C6.0004,5.801 5.102,6.69944 5.102,7.801 C5.102,8.9026 6.00044,9.801 7.102,9.801 C8.2036,9.801 9.102,8.801 9.102,7.801 C9.102,6.6994 8.19966,5.801 7.102,5.801 Z" id="Fill-6"></path>
            <polygon id="Fill-7" points="32.898 4.699 34.898 4.699 34.898 6.699 32.898 6.699"></polygon>
            <polygon id="Fill-8" points="32.898 8.699 34.898 8.699 34.898 10.699 32.898 10.699"></polygon>
            <polygon id="Fill-9" points="28.898 4.699 30.898 4.699 30.898 6.699 28.898 6.699"></polygon>
            <polygon id="Fill-10" points="12.898 4.699 14.898 4.699 14.898 6.699 12.898 6.699"></polygon>
            <polygon id="Fill-11" points="12.898 8.699 14.898 8.699 14.898 10.699 12.898 10.699"></polygon>
            <polygon id="Fill-12" points="16.199 15.5 12.199 15.5 12.199 17.6016 14.199 17.6016 14.199 19.6016 12.199 19.6016 12.199 21.6993 14.199 21.6993 14.199 23.6993 12.199 23.6993 12.199 25.6016 16.199 25.6016"></polygon>
            <path d="M12.199,36.801 L20.3006,36.801 L20.3006,28.6994 L12.199,28.6994 L12.199,36.801 Z M14.199,30.6994 L18.3006,30.6994 L18.3006,34.801 L14.199,34.801 L14.199,30.6994 Z" id="Fill-13"></path>
            <polygon id="Fill-14" points="16.898 8.699 18.898 8.699 18.898 10.699 16.898 10.699"></polygon>
            <polygon id="Fill-15" points="16.898 4.699 18.898 4.699 18.898 6.699 16.898 6.699"></polygon>
            <polygon id="Fill-16" points="20.898 8.699 22.898 8.699 22.898 10.699 20.898 10.699"></polygon>
            <polygon id="Fill-17" points="20.898 4.699 22.898 4.699 22.898 6.699 20.898 6.699"></polygon>
            <polygon id="Fill-18" points="24.898 8.699 26.898 8.699 26.898 10.699 24.898 10.699"></polygon>
            <polygon id="Fill-19" points="24.898 4.699 26.898 4.699 26.898 6.699 24.898 6.699"></polygon>
            <polygon id="Fill-20" points="28.898 8.699 30.898 8.699 30.898 10.699 28.898 10.699"></polygon>
            <polygon id="Fill-21" points="27.398 45.301 29.398 45.301 29.398 47.301 27.398 47.301"></polygon>
            <path d="M31.5,15.5 L30.69922,15.5 L27.49612,18.7031 L27.49612,28.6054 L40.59812,28.6054 L40.59812,15.5034 L38.59812,15.5034 C38.60203,15.49949 31.50042,15.49949 31.50042,15.49949 L31.5,15.5 Z M38.6016,26.602 L29.5,26.602 L29.5,19.5004 L31.5,17.5004 L38.6016,17.5004 L38.6016,26.602 Z" id="Fill-22"></path>
            <polygon id="Fill-23" points="36.898 8.699 38.898 8.699 38.898 10.699 36.898 10.699"></polygon>
            <polygon id="Fill-24" points="36.898 4.699 38.898 4.699 38.898 6.699 36.898 6.699"></polygon>
            <polygon id="Fill-25" points="40.898 8.699 42.898 8.699 42.898 10.699 40.898 10.699"></polygon>
            <polygon id="Fill-26" points="40.898 4.699 42.898 4.699 42.898 6.699 40.898 6.699"></polygon>
            <path d="M50.699,42.301 C50.699,44.9651 46.699,44.9651 46.699,42.301 C46.699,39.633 50.699,39.633 50.699,42.301" id="Fill-27"></path>
            <path d="M48.699,5.801 C47.5974,5.801 46.699,6.69944 46.699,7.801 C46.699,8.9026 47.59744,9.801 48.699,9.801 C49.8006,9.801 50.699,8.801 50.699,7.801 C50.699,6.6994 49.80056,5.801 48.699,5.801 Z" id="Fill-28"></path>
            <polygon id="Fill-29" points="61.5 20 63.3008 20.80078 63.3008 19.80078 62.50002 19.10156 62.50002 18.80078 63.3008 18.10156 63.3008 17.10156 61.5 17.89844"></polygon>
            <polygon id="Fill-30" points="60.5 38.301 62.3008 39.10178 62.3008 38.10178 61.50002 37.39866 61.50002 37.00022 62.3008 36.39866 62.3008 35.39866 60.5 36.19944"></polygon>
        </g>
        <g id="OpenMPPT" transform="translate(242.000000, 722.000000)" fill="#000000">
            <path d="M12.0984751,59 L56.8987564,59 C57.5583821,59 57.9971663,58.5611941 57.9971663,57.9015901 L58,13.0984099 C58,12.4387842 57.5611941,12 56.9015901,12 L12.0984099,12 C11.4387842,12 11,12.4388059 11,13.0984099 L11,57.8986912 C11,58.4507371 11.5492122,58.9999275 12.0984099,58.9999275 L12.0984751,59 Z M13.196885,14.1968198 L55.8033904,14.1968198 L55.8033904,56.8033252 L13.196885,56.8033252 L13.196885,14.1968198 Z" id="Fill-1"></path>
            <path d="M45.8624315,31.9010725 L36.5009094,31.9010725 L36.0757578,19.002991 C36.0757578,18.5698812 35.7575841,18.1368001 35.2254828,18.0277841 C34.8003312,17.918811 34.2681948,18.1367572 34.0542393,18.5698669 L24.1604614,36.8858438 C23.9465129,37.2099733 23.9465129,37.6458799 24.1604614,37.9699951 C24.37441,38.2941246 24.6925838,38.5120779 25.1177494,38.5120779 L35.0115272,38.5120779 L30.6503303,53.5783191 C30.3321565,54.7714864 31.8215738,55.5287328 32.5649062,54.5535259 L46.8227599,33.6359006 C47.0367085,33.3117712 47.0367085,32.8758645 46.9297307,32.5517493 C46.6088114,32.1158427 46.1836598,31.9006863 45.8627615,31.9006863 L45.8624315,31.9010725 Z M34.4793206,47.7248462 L37.3511143,37.7546027 C37.458085,37.4304732 37.3511143,37.1035396 37.1371657,36.7793958 C36.9232171,36.455252 36.6050434,36.3462861 36.2868906,36.3462861 L26.7112023,36.3462861 L33.9472123,23.0147157 L34.2653861,32.9849592 C34.2653861,33.527042 34.7975084,34.0691105 35.3296167,34.0691105 L43.6266273,34.0691105 L34.4793206,47.7248462 Z" id="Fill-2"></path>
            <path d="M68.9059048,20.3424025 C69.5629394,20.3424025 70,19.9053203 70,19.2483074 L70,11.7024003 C70,11.0453657 69.5629178,10.6083051 68.9059048,10.6083051 L63.4381721,10.6083051 L63.4381721,7.65592297 C63.4381721,6.99888836 63.0010898,6.56182781 62.3440769,6.56182781 L59.3916946,6.56182781 L59.3916946,1.09409516 C59.3916946,0.437060555 58.9546124,0 58.2975995,0 L50.7516922,0 C50.0946576,0 49.657597,0.437082211 49.657597,1.09409516 L49.657597,6.56182781 L46.4852552,6.56182781 L46.4852552,1.09409516 C46.4852552,0.437060555 46.048173,0 45.39116,0 L37.8452528,0 C37.1882182,0 36.7511576,0.437082211 36.7511576,1.09409516 L36.7511576,6.56182781 L33.5788158,6.56182781 L33.5788158,1.09409516 C33.5788158,0.437060555 33.1417335,0 32.4847206,0 L24.9388133,0 C24.2817787,0 23.8447182,0.437082211 23.8447182,1.09409516 L23.8447182,6.56182781 L20.6723763,6.56182781 L20.6723763,1.09409516 C20.6723763,0.437060555 20.2352941,0 19.5782811,0 L12.0323739,0 C11.3753393,0 10.9382787,0.437082211 10.9382787,1.09409516 L10.9382787,6.56182781 L7.65592097,6.56182781 C6.99888634,6.56182781 6.56182578,6.99891002 6.56182578,7.65592297 L6.56182578,10.6083051 L1.09409519,10.6083051 C0.437060564,10.6083051 0,11.0453873 0,11.7024003 L0,19.2483074 C0,19.905342 0.43708222,20.3424025 1.09409519,20.3424025 L6.56182578,20.3424025 L6.56182578,23.5147443 L1.09409519,23.5147443 C0.437060564,23.5147443 0,23.9518265 0,24.6088395 L0,32.1547465 C0,32.8117812 0.43708222,33.2488417 1.09409519,33.2488417 L6.56182578,33.2488417 L6.56182578,36.4211835 L1.09409519,36.4211835 C0.437060564,36.4211835 0,36.8582657 0,37.5152787 L0,45.0611857 C0,45.7182203 0.43708222,46.1552809 1.09409519,46.1552809 L6.56182578,46.1552809 L6.56182578,49.3276227 L1.09409519,49.3276227 C0.437060564,49.3276227 0,49.7647049 0,50.4217178 L0,57.9676249 C0,58.6246595 0.43708222,59.0617201 1.09409519,59.0617201 L6.56182578,59.0617201 L6.56182578,62.3440777 C6.56182578,63.0011124 6.998908,63.4381729 7.65592097,63.4381729 L10.6083032,63.4381729 L10.6083032,68.9059048 C10.6083032,69.5629394 11.0453854,70 11.7023984,70 L19.2483056,70 C19.9053402,70 20.3424008,69.5629178 20.3424008,68.9059048 L20.3424008,63.4381729 L23.5147426,63.4381729 L23.5147426,68.9059048 C23.5147426,69.5629394 23.9518249,70 24.6088378,70 L32.154745,70 C32.8117797,70 33.2488402,69.5629178 33.2488402,68.9059048 L33.2488402,63.4381729 L36.4211821,63.4381729 L36.4211821,68.9059048 C36.4211821,69.5629394 36.8582643,70 37.5152773,70 L45.0611845,70 C45.7182191,70 46.1552797,69.5629178 46.1552797,68.9059048 L46.1552797,63.4381729 L49.3276215,63.4381729 L49.3276215,68.9059048 C49.3276215,69.5629394 49.7647037,70 50.4217167,70 L57.9676239,70 C58.6246586,70 59.0617191,69.5629178 59.0617191,68.9059048 L59.0617191,63.4381729 L62.3440769,63.4381729 C63.0011115,63.4381729 63.4381721,63.0010907 63.4381721,62.3440777 L63.4381721,59.3916956 L68.9059048,59.3916956 C69.5629394,59.3916956 70,58.9546134 70,58.2976004 L70,50.7516934 C70,50.0946587 69.5629178,49.6575982 68.9059048,49.6575982 L63.4381721,49.6575982 L63.4381721,46.4852564 L68.9059048,46.4852564 C69.5629394,46.4852564 70,46.0481742 70,45.3911612 L70,37.8452542 C70,37.1882196 69.5629178,36.751159 68.9059048,36.751159 L63.4381721,36.751159 L63.4381721,33.5788172 L68.9059048,33.5788172 C69.5629394,33.5788172 70,33.141735 70,32.4847221 L70,24.938815 C70,24.2817804 69.5629178,23.8447198 68.9059048,23.8447198 L63.4381721,23.8447198 L63.4381721,20.6723781 L68.9059048,20.6723781 L68.9059048,20.3424025 Z M2.18746993,18.1570276 L2.18746993,12.7964233 L6.56391926,12.7964233 L6.56391926,18.1570276 L2.18746993,18.1570276 Z M2.18746993,31.1705229 L2.18746993,25.8099186 L6.56391926,25.8099186 L6.56391926,31.1705229 L2.18746993,31.1705229 Z M2.18746993,44.1869058 L2.18746993,38.8263015 L6.56391926,38.8263015 L6.56391926,44.1869058 L2.18746993,44.1869058 Z M2.18746993,57.2032887 L2.18746993,51.8426844 L6.56391926,51.8426844 L6.56391926,57.2032887 L2.18746993,57.2032887 Z M51.8426183,2.18739625 L57.2032227,2.18739625 L57.2032227,6.5638491 L51.8426183,6.5638491 L51.8426183,2.18739625 Z M38.8291227,2.18739625 L44.1897271,2.18739625 L44.1897271,6.5638491 L38.8291227,6.5638491 L38.8291227,2.18739625 Z M25.8127396,2.18739625 L31.173344,2.18739625 L31.173344,6.5638491 L25.8127396,6.5638491 L25.8127396,2.18739625 Z M12.7963564,2.18739625 L18.1569608,2.18739625 L18.1569608,6.5638491 L12.7963564,6.5638491 L12.7963564,2.18739625 Z M18.1569608,67.8114494 L12.7963564,67.8114494 L12.7963564,63.4349966 L18.1569608,63.4349966 L18.1569608,67.8114494 Z M31.1704564,67.8114494 L25.809852,67.8114494 L25.809852,63.4349966 L31.1704564,63.4349966 L31.1704564,67.8114494 Z M44.1868396,67.8114494 L38.8262352,67.8114494 L38.8262352,63.4349966 L44.1868396,63.4349966 L44.1868396,67.8114494 Z M57.2032227,67.8114494 L51.8426183,67.8114494 L51.8426183,63.4349966 L57.2032227,63.4349966 L57.2032227,67.8114494 Z M61.2497723,61.2496216 L8.74894054,61.2496216 L8.74894054,8.74879093 L61.2497723,8.74879093 L61.2497723,61.2496216 Z M67.8116003,12.7957014 L67.8116003,18.1563057 L63.4351473,18.1563057 L63.4351473,12.7957014 L67.8116003,12.7957014 Z M67.8116003,51.8426844 L67.8116003,57.2032887 L63.4351473,57.2032887 L63.4351473,51.8426844 L67.8116003,51.8426844 Z M67.8116003,38.8291891 L67.8116003,44.1897934 L63.4351473,44.1897934 L63.4351473,38.8291891 L67.8116003,38.8291891 Z M67.8116003,25.8128062 L67.8116003,31.1734105 L63.4351473,31.1734105 L63.4351473,25.8128062 L67.8116003,25.8128062 Z" id="Fill-3"></path>
        </g>
        <g id="MPPT-Label" transform="translate(0.000000, 734.000000)">
            <rect id="Rectangle" stroke="#979797" fill-opacity="0.656419837" fill="#F1F1F1" x="0.5" y="0.5" width="150" height="27"></rect>
            <text id="Freifunk-OpenMPPT" font-family="Helvetica" font-size="12" font-weight="normal" fill="#000000">
                <tspan x="17" y="17">Freifunk OpenMPPT</tspan>
            </text>
        </g>
        <g id="MPPT-Label" transform="translate(0.000000, 550.000000)">
            <rect id="Rectangle" stroke="#979797" fill-opacity="0.656419837" fill="#F1F1F1" x="0.5" y="0.5" width="150" height="27"></rect>
            <text id="Router" font-family="Helvetica" font-size="12" font-weight="normal" fill="#000000">
                <tspan x="54" y="17">Router</tspan>
            </text>
        </g>
        <g id="MPPT-Label" transform="translate(0.000000, 358.000000)">
            <rect id="Rectangle" stroke="#979797" fill-opacity="0.656419837" fill="#F1F1F1" x="0.5" y="0.5" width="150" height="27"></rect>
            <text id="Mesh-Netzwerk" font-family="Helvetica" font-size="12" font-weight="normal" fill="#000000">
                <tspan x="24" y="17">Mesh-Netzwerk</tspan>
            </text>
        </g>
        <g id="MPPT-Label" transform="translate(0.000000, 159.000000)">
            <rect id="Rectangle" stroke="#979797" fill-opacity="0.656419837" fill="#F1F1F1" x="0.5" y="0.5" width="150" height="27"></rect>
            <text id="Router" font-family="Helvetica" font-size="12" font-weight="normal" fill="#000000">
                <tspan x="54" y="17">Router</tspan>
            </text>
        </g>
        <g id="MPPT-Label" transform="translate(398.000000, 10.000000)">
            <rect id="Rectangle" stroke="#979797" fill-opacity="0.656419837" fill="#F1F1F1" x="0.5" y="0.5" width="150" height="27"></rect>
            <text id="ISEMS-Web-App" font-family="Helvetica" font-size="12" font-weight="normal" fill="#000000">
                <tspan x="27" y="17">ISEMS Web-App</tspan>
            </text>
        </g>
        <g id="MPPT-Label" transform="translate(398.000000, 553.000000)">
            <rect id="Rectangle" stroke="#979797" fill-opacity="0.656419837" fill="#F1F1F1" x="0.5" y="0.5" width="150" height="27"></rect>
            <text id="freifunk-openmppt.lu" font-family="Helvetica" font-size="12" font-weight="normal" fill="#000000">
                <tspan x="14" y="17">freifunk-openmppt.lua</tspan>
            </text>
        </g>
        <g id="MPPT-Label" transform="translate(403.000000, 733.000000)">
            <rect id="Rectangle" stroke="#979797" fill-opacity="0.656419837" fill="#F1F1F1" x="0.5" y="0.5" width="150" height="27"></rect>
            <text id="AVR-8-bit-μC-Firmwar" font-family="Helvetica" font-size="12" font-weight="normal" fill="#000000">
                <tspan x="14" y="17">AVR 8-bit μC-Firmware</tspan>
            </text>
        </g>
        <g id="MPPT-Label" transform="translate(0.000000, 6.000000)">
            <rect id="Rectangle" stroke="#979797" fill-opacity="0.656419837" fill="#F1F1F1" x="0.5" y="0.5" width="150" height="27"></rect>
            <text id="Single-Board-Compute" font-family="Helvetica" font-size="12" font-weight="normal" fill="#000000">
                <tspan x="13" y="17">Single Board Computer</tspan>
            </text>
        </g>
        <path id="Line" d="M277.607719,687.992722 L277.89234,650.991894 L271.892518,650.945741 L279,637 L285.892104,651.05343 L279.892281,651.007278 L279.60766,688.008106 L285.607482,688.054259 L278.5,702 L271.607896,687.94657 L277.607719,687.992722 Z" fill="#BEBEBE" fill-rule="nonzero"></path>
        <path id="Line" d="M276.607719,110.992722 L276.89234,73.9918937 L270.892518,73.9457413 L278,60 L284.892104,74.0534304 L278.892281,74.0072779 L278.60766,111.008106 L284.607482,111.054259 L277.5,125 L270.607896,110.94657 L276.607719,110.992722 Z" fill="#BEBEBE" fill-rule="nonzero"></path>
        <path id="Line" d="M474,104.5 L474,515 L474,516 L472,516 L472,515 L472,104.5 L466,104.5 L473,90.5 L480,104.5 L474,104.5 Z" fill="#BEBEBE" fill-rule="nonzero"></path>
        <path id="Line" d="M472,688 L472,651.5 L466,651.5 L473,637.5 L480,651.5 L474,651.5 L474,688 L480,688 L473,702 L466,688 L472,688 Z" fill="#BEBEBE" fill-rule="nonzero"></path>
        <text id="ASCII-Text" font-family="Helvetica" font-size="12" font-weight="normal" fill="#000000">
            <tspan x="500" y="673">ASCII Text</tspan>
        </text>
        <text id="LAN" font-family="Helvetica" font-size="12" font-weight="normal" fill="#000000">
            <tspan x="234" y="93">LAN</tspan>
        </text>
        <text id="RS323-@-3.3V" font-family="Helvetica" font-size="12" font-weight="normal" fill="#000000">
            <tspan x="188" y="673">RS323 @ 3.3V</tspan>
        </text>
        <g id="Mesh" transform="translate(217.000000, 228.000000)">
            <circle id="Oval" stroke="#979797" fill="#D8D8D8" cx="25.5" cy="58.5" r="7.5"></circle>
            <circle id="Oval" stroke="#979797" fill="#D8D8D8" cx="93.5" cy="61.5" r="7.5"></circle>
            <circle id="Oval" stroke="#979797" fill="#D8D8D8" cx="96.5" cy="143.5" r="7.5"></circle>
            <circle id="Oval" stroke="#979797" fill="#D8D8D8" cx="56.5" cy="209.5" r="7.5"></circle>
            <circle id="Oval" stroke="#979797" fill="#D8D8D8" cx="7.5" cy="136.5" r="7.5"></circle>
            <path d="M17.5,153 L40.5,189.5" id="Line-2" stroke="#C9C6C6" stroke-linecap="square"></path>
            <path d="M72.5,231 L89.5,282" id="Line-2" stroke="#C9C6C6" stroke-linecap="square"></path>
            <path d="M50.25,231 L28,282" id="Line-2" stroke="#C9C6C6" stroke-linecap="square"></path>
            <path d="M29,139 L71.5,143.5" id="Line-2" stroke="#C9C6C6" stroke-linecap="square"></path>
            <path d="M15,114.5 L23,82.5" id="Line-2" stroke="#C9C6C6" stroke-linecap="square"></path>
            <path d="M37,38.5 L50.25,0.5" id="Line-2" stroke="#C9C6C6" stroke-linecap="square"></path>
            <path d="M93,36.5 L86,0.5" id="Line-2" stroke="#C9C6C6" stroke-linecap="square"></path>
            <path d="M34,119.5 L73,82.5" id="Line-2" stroke="#C9C6C6" stroke-linecap="square"></path>
            <path d="M93,125 L93,82.5" id="Line-2" stroke="#C9C6C6" stroke-linecap="square"></path>
            <path d="M69,190.5 L89,159.5" id="Line-2" stroke="#C9C6C6" stroke-linecap="square"></path>
        </g>
        <g id="Router" transform="translate(232.000000, 534.000000)" fill="#000000">
            <path d="M85.5,50.141 L77.418,50.141 L77.418,12.832 C77.418,11.039 75.961,9.582 74.168,9.582 L73.83597,9.582 C72.04297,9.582 70.58597,11.039 70.58597,12.832 L70.58597,50.137 L15.08597,50.137 L15.08597,12.832 C15.08597,11.039 13.62897,9.582 11.83597,9.582 L11.50003,9.582 C9.70703,9.582 8.25003,11.039 8.25003,12.832 L8.25003,50.137 L3.75003,50.137 C1.95703,50.137 0.50003,51.594 0.50003,53.387 L0.50003,62.2112 C0.50003,64.0042 1.95703,65.4612 3.75003,65.4612 L8.50003,65.4612 L8.50003,69.5784 L77.41803,69.5784 L77.41803,65.4612 L85.50003,65.46511 C87.29303,65.46511 88.75003,64.00811 88.75003,62.21511 L88.75003,53.39091 C88.75003,51.59791 87.29303,50.14091 85.50003,50.14091 L85.5,50.141 Z M73.086,12.832 C73.086,12.41794 73.42194,12.082 73.836,12.082 L74.16803,12.082 C74.58209,12.082 74.91803,12.41794 74.91803,12.832 L74.91803,50.137 L73.08603,50.137 L73.086,12.832 Z M67.2774,52.641 L64.4297,57.7504 L27.8677,57.7504 L25.9654,52.641 L67.2774,52.641 Z M10.7504,12.832 C10.7504,12.41794 11.08634,12.082 11.5004,12.082 L11.83243,12.082 C12.24649,12.082 12.58243,12.41794 12.58243,12.832 L12.58243,50.137 L10.75043,50.137 L10.7504,12.832 Z M74.9184,67.086 L11.0004,67.086 L11.0004,65.4688 L74.9184,65.4688 L74.9184,67.086 Z M86.2504,62.2149 C86.2504,62.62896 85.91446,62.9649 85.5004,62.9649 L3.750399,62.9649 C3.336339,62.9649 3.000399,62.62896 3.000399,62.2149 L3.000399,53.3907 C3.000399,52.97664 3.336339,52.6407 3.750399,52.6407 L23.3014,52.6407 L26.1334,60.2501 L65.9034,60.2501 L70.1417,52.6407 L85.5007,52.6407 C85.91476,52.6407 86.2507,52.97664 86.2507,53.3907 L86.2504,62.2149 Z" id="Fill-1"></path>
            <polygon id="Fill-2" points="9.75 56.617 21.5 56.617 21.5 59.117 9.75 59.117"></polygon>
            <polygon id="Fill-3" points="31.629 53.945 36.5743 53.945 36.5743 56.445 31.629 56.445"></polygon>
            <polygon id="Fill-4" points="39.629 53.945 44.5743 53.945 44.5743 56.445 39.629 56.445"></polygon>
            <polygon id="Fill-5" points="47.629 53.945 52.5743 53.945 52.5743 56.445 47.629 56.445"></polygon>
            <polygon id="Fill-6" points="55.629 53.945 60.5743 53.945 60.5743 56.445 55.629 56.445"></polygon>
            <path d="M11.5,2.582 C16.0508,2.582 19.75,6.2812 19.75,10.832 L22.25,10.832 C22.25,4.9023 17.4297,0.082 11.5,0.082 C5.5703,0.082 0.75,4.9062 0.75,10.832 L3.25,10.832 C3.25,6.2851 6.9531,2.582 11.5,2.582 Z" id="Fill-7"></path>
            <path d="M11.5,3.512 C7.4609,3.512 4.1758,6.7972 4.1758,10.8362 L6.6758,10.8362 C6.6758,8.176 8.8399,6.012 11.5,6.012 C14.1601,6.012 16.3242,8.1761 16.3242,10.8362 L18.8242,10.8362 C18.8242,6.7971 15.539,3.512 11.5,3.512 Z" id="Fill-8"></path>
            <path d="M74,2.582 C78.5508,2.582 82.25,6.2812 82.25,10.832 L84.75,10.832 C84.75,4.9023 79.9297,0.082 74,0.082 C68.0703,0.082 63.25,4.9023 63.25,10.832 L65.75,10.832 C65.75,6.2851 69.4492,2.582 74,2.582 Z" id="Fill-9"></path>
            <path d="M74,3.512 C69.9648,3.512 66.6797,6.7972 66.6797,10.8362 L69.1797,10.8362 C69.1797,8.176 71.3438,6.012 74,6.012 C76.6602,6.012 78.8203,8.1761 78.8203,10.8362 L81.3203,10.8362 C81.3203,6.7971 78.0351,3.512 74,3.512 Z" id="Fill-10"></path>
        </g>
        <text id="CSV-Data" font-family="Helvetica" font-size="12" font-weight="normal" fill="#000000">
            <tspan x="500" y="300">CSV Data</tspan>
        </text>
    </g>
</svg>
