<?xml version="1.0" encoding="UTF-8"?>
<svg width="428px" height="187px" viewBox="0 0 428 187" version="1.1" xmlns="http://www.w3.org/2000/svg" xmlns:xlink="http://www.w3.org/1999/xlink">
    <!-- Generator: Sketch 51.3 (57544) - http://www.bohemiancoding.com/sketch -->
    <title>village</title>
    <desc>Created with Sketch.</desc>
    <defs></defs>
    <g id="Page-1" stroke="none" stroke-width="1" fill="none" fill-rule="evenodd">
        <g id="noun_Village_1026034" transform="translate(0.000000, 147.000000)" fill="#000000" fill-rule="nonzero">
            <path d="M84.71,27.69 L79.11,27.69 L79.11,14.06 L82.7,14.06 C83.1062651,14.0623626 83.47358,13.8186962 83.629371,13.4434815 C83.7851619,13.0682668 83.6984599,12.6360905 83.41,12.35 L74.94,3.88 C70.5671814,-0.487747689 63.4828186,-0.487747689 59.11,3.88 L50.64,12.35 C50.3515401,12.6360905 50.2648381,13.0682668 50.420629,13.4434815 C50.57642,13.8186962 50.9437349,14.0623626 51.35,14.06 L54.94,14.06 L54.94,27.69 L45.37,27.69 L45.37,20.15 C46.8247055,19.7142516 47.8234349,18.3785525 47.83,16.86 L47.83,12 C47.7311891,10.1640043 46.2136527,8.72594354 44.375,8.72594354 C42.5363473,8.72594354 41.0188109,10.1640043 40.92,12 L40.92,16.83 C40.9265651,18.3485525 41.9252945,19.6842516 43.38,20.12 L43.38,27.66 L32.28,27.66 L32.28,14.06 L35.87,14.06 C36.2762651,14.0623626 36.64358,13.8186962 36.799371,13.4434815 C36.9551619,13.0682668 36.8684599,12.6360905 36.58,12.35 L28.11,3.88 C23.7349051,-0.482244151 16.6550949,-0.482244151 12.28,3.88 L3.81,12.35 C3.52154005,12.6360905 3.43483814,13.0682668 3.59062905,13.4434815 C3.74641996,13.8186962 4.11373493,14.0623626 4.52,14.06 L8.1,14.06 L8.1,27.69 L1.29,27.69 C0.73771525,27.69 0.29,28.1377153 0.29,28.69 C0.29,29.2422847 0.73771525,29.69 1.29,29.69 L84.71,29.69 C85.2622847,29.69 85.71,29.2422847 85.71,28.69 C85.71,28.1377153 85.2622847,27.69 84.71,27.69 Z M42.92,16.86 L42.92,12 C42.9828053,11.2430715 43.6154704,10.660727 44.375,10.660727 C45.1345296,10.660727 45.7671947,11.2430715 45.83,12 L45.83,16.83 C45.875521,17.3786184 45.6085825,17.9061999 45.1396084,18.1945011 C44.6706342,18.4828023 44.0793658,18.4828023 43.6103916,18.1945011 C43.1414175,17.9061999 42.874479,17.3786184 42.92,16.83 L42.92,16.86 Z M60.52,5.29 C64.1115887,1.7043471 69.9284113,1.7043471 73.52,5.29 L80.29,12.06 L53.76,12.06 L60.52,5.29 Z M13.69,5.29 C17.2815887,1.7043471 23.0984113,1.7043471 26.69,5.29 L33.46,12.06 L6.93,12.06 L13.69,5.29 Z M19.24,27.68 L19.24,17.86 L23.42,17.86 L23.42,27.69 L19.24,27.68 Z M25.42,27.68 L25.42,16.86 C25.42,16.3077153 24.9722847,15.86 24.42,15.86 L18.24,15.86 C17.6877153,15.86 17.24,16.3077153 17.24,16.86 L17.24,27.69 L10.1,27.69 L10.1,14.06 L30.28,14.06 L30.28,27.69 L25.42,27.68 Z M66.07,27.68 L66.07,17.86 L70.25,17.86 L70.25,27.69 L66.07,27.68 Z M72.25,27.68 L72.25,16.86 C72.25,16.3077153 71.8022847,15.86 71.25,15.86 L65.07,15.86 C64.5177153,15.86 64.07,16.3077153 64.07,16.86 L64.07,27.69 L56.94,27.69 L56.94,14.06 L77.11,14.06 L77.11,27.69 L72.25,27.68 Z" id="Shape"></path>
            <path d="M14,31.06 L9.1,31.06 C8.54771525,31.06 8.1,31.5077153 8.1,32.06 C8.1,32.6122847 8.54771525,33.06 9.1,33.06 L14,33.06 C14.5522847,33.06 15,32.6122847 15,32.06 C15,31.5077153 14.5522847,31.06 14,31.06 Z" id="Shape"></path>
            <path d="M22.2,34.23 L18.2,34.23 C17.6477153,34.23 17.2,34.6777153 17.2,35.23 C17.2,35.7822847 17.6477153,36.23 18.2,36.23 L22.2,36.23 C22.7522847,36.23 23.2,35.7822847 23.2,35.23 C23.2,34.6777153 22.7522847,34.23 22.2,34.23 Z" id="Shape"></path>
            <path d="M38,33.54 C38,32.9877153 37.5522847,32.54 37,32.54 L32.55,32.54 C31.9977153,32.54 31.5500001,32.9877153 31.5500001,33.54 C31.5500001,34.0922847 31.9977153,34.54 32.55,34.54 L37,34.54 C37.5522847,34.54 38,34.0922847 38,33.54 Z" id="Shape"></path>
            <path d="M44.37,37.4 L37,37.4 C36.4477153,37.4 36,37.8477153 36,38.4 C36,38.9522847 36.4477153,39.4 37,39.4 L44.39,39.4 C44.9422847,39.4 45.39,38.9522847 45.39,38.4 C45.39,37.8477153 44.9422847,37.4 44.39,37.4 L44.37,37.4 Z" id="Shape"></path>
            <path d="M59.58,32.54 L52.82,32.54 C52.2677153,32.54 51.8200001,32.9877153 51.8200001,33.54 C51.8200001,34.0922847 52.2677153,34.54 52.82,34.54 L59.58,34.54 C60.1322847,34.54 60.58,34.0922847 60.58,33.54 C60.58,32.9877153 60.1322847,32.54 59.58,32.54 Z" id="Shape"></path>
            <path d="M65.91,37.4 L61.48,37.4 C60.9277153,37.4 60.48,37.8477153 60.48,38.4 C60.48,38.9522847 60.9277153,39.4 61.48,39.4 L65.91,39.4 C66.4622847,39.4 66.91,38.9522847 66.91,38.4 C66.91,37.8477153 66.4622847,37.4 65.91,37.4 Z" id="Shape"></path>
            <path d="M82.7,32.54 L80.49,32.54 C79.9377153,32.54 79.4900001,32.9877153 79.4900001,33.54 C79.4900001,34.0922847 79.9377153,34.54 80.49,34.54 L82.7,34.54 C83.2522847,34.54 83.7,34.0922847 83.7,33.54 C83.7,32.9877153 83.2522847,32.54 82.7,32.54 Z" id="Shape"></path>
        </g>
        <g id="noun_Village_1026034" transform="translate(342.000000, 147.000000)" fill="#000000" fill-rule="nonzero">
            <path d="M84.71,27.69 L79.11,27.69 L79.11,14.06 L82.7,14.06 C83.1062651,14.0623626 83.47358,13.8186962 83.629371,13.4434815 C83.7851619,13.0682668 83.6984599,12.6360905 83.41,12.35 L74.94,3.88 C70.5671814,-0.487747689 63.4828186,-0.487747689 59.11,3.88 L50.64,12.35 C50.3515401,12.6360905 50.2648381,13.0682668 50.420629,13.4434815 C50.57642,13.8186962 50.9437349,14.0623626 51.35,14.06 L54.94,14.06 L54.94,27.69 L45.37,27.69 L45.37,20.15 C46.8247055,19.7142516 47.8234349,18.3785525 47.83,16.86 L47.83,12 C47.7311891,10.1640043 46.2136527,8.72594354 44.375,8.72594354 C42.5363473,8.72594354 41.0188109,10.1640043 40.92,12 L40.92,16.83 C40.9265651,18.3485525 41.9252945,19.6842516 43.38,20.12 L43.38,27.66 L32.28,27.66 L32.28,14.06 L35.87,14.06 C36.2762651,14.0623626 36.64358,13.8186962 36.799371,13.4434815 C36.9551619,13.0682668 36.8684599,12.6360905 36.58,12.35 L28.11,3.88 C23.7349051,-0.482244151 16.6550949,-0.482244151 12.28,3.88 L3.81,12.35 C3.52154005,12.6360905 3.43483814,13.0682668 3.59062905,13.4434815 C3.74641996,13.8186962 4.11373493,14.0623626 4.52,14.06 L8.1,14.06 L8.1,27.69 L1.29,27.69 C0.73771525,27.69 0.29,28.1377153 0.29,28.69 C0.29,29.2422847 0.73771525,29.69 1.29,29.69 L84.71,29.69 C85.2622847,29.69 85.71,29.2422847 85.71,28.69 C85.71,28.1377153 85.2622847,27.69 84.71,27.69 Z M42.92,16.86 L42.92,12 C42.9828053,11.2430715 43.6154704,10.660727 44.375,10.660727 C45.1345296,10.660727 45.7671947,11.2430715 45.83,12 L45.83,16.83 C45.875521,17.3786184 45.6085825,17.9061999 45.1396084,18.1945011 C44.6706342,18.4828023 44.0793658,18.4828023 43.6103916,18.1945011 C43.1414175,17.9061999 42.874479,17.3786184 42.92,16.83 L42.92,16.86 Z M60.52,5.29 C64.1115887,1.7043471 69.9284113,1.7043471 73.52,5.29 L80.29,12.06 L53.76,12.06 L60.52,5.29 Z M13.69,5.29 C17.2815887,1.7043471 23.0984113,1.7043471 26.69,5.29 L33.46,12.06 L6.93,12.06 L13.69,5.29 Z M19.24,27.68 L19.24,17.86 L23.42,17.86 L23.42,27.69 L19.24,27.68 Z M25.42,27.68 L25.42,16.86 C25.42,16.3077153 24.9722847,15.86 24.42,15.86 L18.24,15.86 C17.6877153,15.86 17.24,16.3077153 17.24,16.86 L17.24,27.69 L10.1,27.69 L10.1,14.06 L30.28,14.06 L30.28,27.69 L25.42,27.68 Z M66.07,27.68 L66.07,17.86 L70.25,17.86 L70.25,27.69 L66.07,27.68 Z M72.25,27.68 L72.25,16.86 C72.25,16.3077153 71.8022847,15.86 71.25,15.86 L65.07,15.86 C64.5177153,15.86 64.07,16.3077153 64.07,16.86 L64.07,27.69 L56.94,27.69 L56.94,14.06 L77.11,14.06 L77.11,27.69 L72.25,27.68 Z" id="Shape"></path>
            <path d="M14,31.06 L9.1,31.06 C8.54771525,31.06 8.1,31.5077153 8.1,32.06 C8.1,32.6122847 8.54771525,33.06 9.1,33.06 L14,33.06 C14.5522847,33.06 15,32.6122847 15,32.06 C15,31.5077153 14.5522847,31.06 14,31.06 Z" id="Shape"></path>
            <path d="M22.2,34.23 L18.2,34.23 C17.6477153,34.23 17.2,34.6777153 17.2,35.23 C17.2,35.7822847 17.6477153,36.23 18.2,36.23 L22.2,36.23 C22.7522847,36.23 23.2,35.7822847 23.2,35.23 C23.2,34.6777153 22.7522847,34.23 22.2,34.23 Z" id="Shape"></path>
            <path d="M38,33.54 C38,32.9877153 37.5522847,32.54 37,32.54 L32.55,32.54 C31.9977153,32.54 31.5500001,32.9877153 31.5500001,33.54 C31.5500001,34.0922847 31.9977153,34.54 32.55,34.54 L37,34.54 C37.5522847,34.54 38,34.0922847 38,33.54 Z" id="Shape"></path>
            <path d="M44.37,37.4 L37,37.4 C36.4477153,37.4 36,37.8477153 36,38.4 C36,38.9522847 36.4477153,39.4 37,39.4 L44.39,39.4 C44.9422847,39.4 45.39,38.9522847 45.39,38.4 C45.39,37.8477153 44.9422847,37.4 44.39,37.4 L44.37,37.4 Z" id="Shape"></path>
            <path d="M59.58,32.54 L52.82,32.54 C52.2677153,32.54 51.8200001,32.9877153 51.8200001,33.54 C51.8200001,34.0922847 52.2677153,34.54 52.82,34.54 L59.58,34.54 C60.1322847,34.54 60.58,34.0922847 60.58,33.54 C60.58,32.9877153 60.1322847,32.54 59.58,32.54 Z" id="Shape"></path>
            <path d="M65.91,37.4 L61.48,37.4 C60.9277153,37.4 60.48,37.8477153 60.48,38.4 C60.48,38.9522847 60.9277153,39.4 61.48,39.4 L65.91,39.4 C66.4622847,39.4 66.91,38.9522847 66.91,38.4 C66.91,37.8477153 66.4622847,37.4 65.91,37.4 Z" id="Shape"></path>
            <path d="M82.7,32.54 L80.49,32.54 C79.9377153,32.54 79.4900001,32.9877153 79.4900001,33.54 C79.4900001,34.0922847 79.9377153,34.54 80.49,34.54 L82.7,34.54 C83.2522847,34.54 83.7,34.0922847 83.7,33.54 C83.7,32.9877153 83.2522847,32.54 82.7,32.54 Z" id="Shape"></path>
        </g>
        <g id="ISEMS" transform="translate(195.000000, 0.000000)" fill="#000000">
            <g id="noun_solar-panel_1832989" transform="translate(0.000000, 38.513514)" fill-rule="nonzero">
                <path d="M59.393,5.12034614e-14 L27.393,5.12034614e-14 C27.0353863,-0.000353139682 26.7048068,0.192868763 26.526,0.506756757 L26.302,0.9 L25.263,2.71317568 L16.134,18.75 C15.9553695,19.0635782 15.9553671,19.4499219 16.1339936,19.7635024 C16.3126202,20.0770829 16.6427389,20.2702611 17,20.2702703 L35,20.2702703 L35,34.4594595 L0,34.4594595 L0,36.4864865 L60,36.4864865 L60,24.3243243 C60,23.7645763 59.5522847,23.3108108 59,23.3108108 L58,23.3108108 L58,22.2972973 L56,22.2972973 L56,23.3108108 L51,23.3108108 L51,22.2972973 L49,22.2972973 L49,23.3108108 L48,23.3108108 C47.4477153,23.3108108 47,23.7645763 47,24.3243243 L47,34.4594595 L41,34.4594595 L41,20.2702703 L49,20.2702703 C49.3572565,20.2702611 49.6873717,20.0770877 49.866,19.7635135 L60.259,1.52027027 C60.4376305,1.20669208 60.4376329,0.820348394 60.2590064,0.506767905 C60.0803798,0.193187416 59.7502611,9.19836106e-06 59.393,5.12034614e-14 Z M40,18.2432432 L34.732,18.2432432 L37.042,14.1891892 L42.732,14.1891892 L40.422,18.2432432 L40,18.2432432 Z M43.887,12.1621622 L38.2,12.1621622 L40.51,8.10810811 L46.2,8.10810811 L43.887,12.1621622 Z M48.506,8.10810811 L54.2,8.10810811 L51.891,12.1621622 L46.2,12.1621622 L48.506,8.10810811 Z M41.661,6.08108108 L43.97,2.02702703 L49.66,2.02702703 L47.351,6.08108108 L41.661,6.08108108 Z M39.351,6.08108108 L33.661,6.08108108 L35.97,2.02702703 L41.66,2.02702703 L39.351,6.08108108 Z M31.351,6.08108108 L25.661,6.08108108 L27.97,2.02702703 L33.66,2.02702703 L31.351,6.08108108 Z M24.506,8.10810811 L30.2,8.10810811 L27.891,12.1621622 L22.2,12.1621622 L24.506,8.10810811 Z M32.506,8.10810811 L38.2,8.10810811 L35.891,12.1621622 L30.2,12.1621622 L32.506,8.10810811 Z M34.732,14.1891892 L32.422,18.2432432 L26.732,18.2432432 L29.042,14.1891892 L34.732,14.1891892 Z M45.042,14.1891892 L50.732,14.1891892 L48.422,18.2432432 L42.732,18.2432432 L45.042,14.1891892 Z M55.351,6.08108108 L49.661,6.08108108 L51.97,2.02702703 L57.66,2.02702703 L55.351,6.08108108 Z M21.042,14.1891892 L26.732,14.1891892 L24.422,18.2432432 L18.732,18.2432432 L21.042,14.1891892 Z M49,25.3378378 L58,25.3378378 L58,34.4594595 L49,34.4594595 L49,25.3378378 Z M39,34.4594595 L37,34.4594595 L37,20.2702703 L39,20.2702703 L39,34.4594595 Z" id="Shape"></path>
                <path d="M55,29.3918919 L53.868,29.3918919 L54.832,27.9273649 L53.168,26.8023649 L51.168,29.8429054 C50.9632678,30.1539108 50.9440981,30.5538938 51.118126,30.8835457 C51.292154,31.2131975 51.6311131,31.4189749 52,31.4189189 L53.132,31.4189189 L52.168,32.8834459 L53.832,34.0084459 L55.832,30.9679054 C56.0367322,30.6569 56.0559019,30.256917 55.881874,29.9272652 C55.707846,29.5976133 55.3688869,29.3918359 55,29.3918919 Z" id="Shape"></path>
            </g>
            <g id="noun_wifi_1101870" transform="translate(1.000000, 0.000000)">
                <path d="M11.0000612,5.94434302 L11.0000612,72.972973 L12.7067726,72.972973 L12.9998994,6.27507592 C13.0037299,5.95328953 12.8979903,5.64336152 12.7067726,5.41590678 C12.5155549,5.18845204 12.2551467,5.06284468 11.98488,5.06770346 C11.3231196,5.21408253 10.9948467,5.50629571 11.0000612,5.94434302 Z" id="Shape"></path>
                <path d="M14.870966,4.05405794 C14.4833865,4.05522191 14.1429208,4.31145079 14.0347687,4.68336617 C13.9266167,5.05528154 14.0766436,5.45393721 14.4032408,5.66248018 C14.6320588,5.81320526 14.8461144,5.98624558 15.0473292,6.18416308 C15.0482464,6.18503596 15.04912,6.18590884 15.0500372,6.18678173 C16.5859873,7.71705475 16.6591008,10.11256 15.2883328,11.7313651 C15.082477,11.9689175 15.0202883,12.2987041 15.1255068,12.5948313 C15.2307252,12.8909585 15.4871092,13.1077159 15.796786,13.1623579 C16.1064629,13.2169999 16.4216306,13.1010921 16.6219763,12.8588812 C18.5687419,10.5598165 18.4512537,7.10652546 16.2795136,4.9467423 C16.2785546,4.94586728 16.2775938,4.9449944 16.276631,4.94412365 C15.9954892,4.66705749 15.6908062,4.41987012 15.3646346,4.20504052 C15.2190602,4.10615948 15.0469868,4.05353292 14.870966,4.05405794 Z" id="Shape"></path>
                <path d="M16.900091,2.02732477 C16.5072791,2.03729616 16.1638976,2.28821641 16.0440713,2.65284674 C15.924245,3.01747708 16.0541827,3.41606433 16.3679945,3.6464895 C16.6173165,3.83498748 16.8577672,4.03750462 17.0750692,4.2503178 C17.0762671,4.25152159 17.0774684,4.25272213 17.0786732,4.25391938 C19.7646143,6.85497082 19.8500935,10.9893567 17.3565037,13.6906358 C17.1300904,13.9289566 17.052934,14.2676074 17.1545849,14.5768874 C17.2562358,14.8861673 17.5209415,15.1181487 17.8473216,15.1839841 C18.1737017,15.2498196 18.5111786,15.139307 18.7305009,14.8947718 C21.8680032,11.4959782 21.7519825,6.24482174 18.3849801,2.98042131 L18.3849801,2.98028625 C18.3837788,2.97893566 18.382485,2.97803526 18.3812375,2.97668466 C18.0981396,2.69980829 17.7997941,2.45010137 17.5007556,2.22401185 C17.330546,2.09149202 17.1177544,2.02183127 16.8999523,2.02732927 L16.900091,2.02732477 Z" id="Shape"></path>
                <path d="M18.9552872,8.73906647e-06 C18.5508589,-0.00167577331 18.1895448,0.240306815 18.054577,0.60324056 C17.9196093,0.966174304 18.0405113,1.37066946 18.3559704,1.61159553 C18.619179,1.81847167 18.8683594,2.02723554 19.0963308,2.24536562 C19.0973585,2.24642425 19.0983888,2.24748053 19.0994218,2.24853447 C23.0128368,5.95811302 23.1097508,11.8787841 19.395157,15.6983218 C19.1576204,15.9346025 19.0724049,16.2744686 19.1722346,16.5874068 C19.2720643,16.9003449 19.5414195,17.1377057 19.8768641,17.2083393 C20.2123087,17.2789728 20.5616944,17.1718984 20.7908521,16.9282341 C25.184605,12.4103362 25.0641995,5.35070777 20.4446151,0.968545241 C20.4435689,0.967639855 20.4425228,0.966734469 20.4414766,0.96537639 C20.154301,0.690863404 19.8585183,0.444625617 19.5669678,0.215463407 C19.3961237,0.0772567025 19.1794836,0.000948690536 18.9552872,8.73906637e-06 Z" id="Shape"></path>
                <path d="M8.62941199,4.20877085 C8.31477796,4.41926837 8.00765915,4.66320922 7.72251796,4.94399619 C5.55188835,7.1062081 5.42915443,10.5567428 7.37721138,12.8554285 C7.57705309,13.0994656 7.8931915,13.2169009 8.20419059,13.1626247 C8.51518968,13.1083486 8.77268511,12.8908016 8.87776696,12.5935487 C8.98284882,12.2962957 8.91917553,11.9655634 8.71120547,11.7283936 C7.34068395,10.1111648 7.41749642,7.71597079 8.94959504,6.18617631 C9.14883558,5.99024535 9.37009745,5.81347472 9.60215152,5.65822457 C9.93136898,5.44466295 10.0775305,5.03810204 9.95949367,4.66424635 C9.84145686,4.29039066 9.48820012,4.04102284 9.09583585,4.0545808 C8.92880597,4.06048043 8.76693356,4.11394365 8.62941199,4.20877085 Z" id="Shape"></path>
                <path d="M7.08053976,2.02703509 C6.87240548,2.02617657 6.67007688,2.09390087 6.50636603,2.21922498 C6.19321393,2.45205268 5.89848527,2.7044519 5.6179782,2.97420751 C5.61691355,2.9752555 5.61585154,2.97630604 5.61479219,2.97735912 C2.25184253,6.24165183 2.12959224,11.4949954 5.26645551,14.8956629 C5.48577056,15.1397071 5.82278183,15.2498228 6.14861945,15.1839028 C6.47445706,15.1179829 6.7387224,14.8862233 6.84036292,14.5772468 C6.94200344,14.2682703 6.865298,13.9298675 6.63957803,13.6914404 C4.14895227,10.9913765 4.23774488,6.85793635 6.91472892,4.25643697 C6.91519066,4.25612181 6.91537535,4.25598674 6.91574474,4.25553651 C6.91643735,4.25508628 6.91708379,4.25418582 6.9177764,4.25373559 C7.14703033,4.03349183 7.3813634,3.83350844 7.62608562,3.65155229 C7.94573167,3.42071431 8.0778753,3.01623854 7.95406273,2.64765374 C7.83025016,2.27906895 7.47830336,2.02919997 7.08053976,2.02748532 L7.08053976,2.02703509 Z" id="Shape"></path>
                <path d="M5.01590411,0.000537508821 C4.80157961,0.00755990495 4.5960339,0.0832969573 4.43260825,0.215463471 C4.13563255,0.448853442 3.84593496,0.695102115 3.56118459,0.962395594 C3.56008777,0.9634495 3.55899367,0.964505969 3.5579023,0.965564993 C-1.06657501,5.348517 -1.18269665,12.4111048 3.20798186,16.9307032 C3.43753025,17.1729132 3.78620179,17.2788976 4.12075318,17.2081549 C4.45530457,17.1374123 4.72402902,16.9008762 4.82423464,16.588938 C4.92444025,16.2769997 4.84063971,15.9378711 4.60485701,15.7011486 C0.894601545,11.8819194 0.985949046,5.96203556 4.89712335,2.25186081 C4.89759904,2.25149859 4.89793203,2.25140804 4.89831258,2.25095527 C4.89902612,2.25004973 4.89969209,2.24959695 4.90040563,2.24869141 C5.14082133,2.02323399 5.38613668,1.81446119 5.64396277,1.61183702 C5.96358469,1.36773469 6.08307601,0.956259115 5.94053599,0.590569288 C5.79799598,0.224879462 5.42545563,-0.0128482745 5.01590411,0.000537508821 Z" id="Shape"></path>
            </g>
        </g>
        <g id="Wifi" transform="translate(80.122965, 136.168578) rotate(-58.000000) translate(-80.122965, -136.168578) translate(74.622965, 127.668578)" fill="#000000">
            <path d="M0.870965986,3.00000384 C0.483386527,3.00115228 0.142920783,3.25396478 0.034768727,3.62092128 C-0.0733833292,3.98787778 0.076643629,4.38121805 0.403240837,4.58698045 C0.632058846,4.73569585 0.846114402,4.90642898 1.04732925,5.10170757 C1.04824644,5.10256881 1.04911996,5.10343006 1.05003715,5.1042913 C2.58598731,6.61416069 2.65910076,8.97772583 1.28833283,10.5749469 C1.08247705,10.8093319 1.02028833,11.1347214 1.12550677,11.4269002 C1.2307252,11.719079 1.48710919,11.9329463 1.79678603,11.9868598 C2.10646286,12.0407733 2.4216306,11.9264108 2.62197625,11.6874295 C4.56874187,9.41901893 4.45125372,6.01177179 2.27951357,3.88078574 C2.27855465,3.87992238 2.27759377,3.87906114 2.27663096,3.87820201 C1.99548923,3.60483006 1.69080619,3.36093852 1.36463462,3.14897331 C1.21906017,3.05141068 1.04698681,2.99948582 0.870965986,3.00000384 Z" id="Shape"></path>
            <path d="M3.90009096,2.00029377 C3.50727909,2.01013221 3.16389762,2.25770685 3.04407133,2.61747545 C2.92424503,2.97724405 3.05418273,3.37051681 3.36799452,3.59786964 C3.61731654,3.78385431 3.8577672,3.98367123 4.07506918,4.19364689 C4.07626706,4.19483464 4.0774684,4.19601916 4.07867317,4.19720046 C6.76461429,6.76357121 6.85009349,10.842832 4.35650365,13.508094 C4.13009041,13.7432372 4.05293405,14.0773727 4.15458492,14.3825289 C4.25623579,14.6876851 4.5209415,14.9165733 4.84732162,14.981531 C5.17370174,15.0464887 5.51117857,14.9374495 5.73050085,14.6961749 C8.86800316,11.3426985 8.75198248,6.16155745 5.38498009,2.94068236 L5.38498009,2.9405491 C5.38377876,2.93921651 5.38248502,2.93832812 5.38123748,2.93699554 C5.09813963,2.66381084 4.79979414,2.41743335 4.50075557,2.19435836 C4.33054604,2.06360546 4.1177544,1.99487352 3.89995234,2.00029822 L3.90009096,2.00029377 Z" id="Shape"></path>
            <path d="M5.95528715,8.62254558e-06 C5.55085889,-0.00165342966 5.18954478,0.237102724 5.05457702,0.595197352 C4.91960926,0.95329198 5.0405113,1.35239386 5.35597043,1.59010759 C5.61917904,1.79422538 5.86835936,2.00020573 6.09633082,2.21542741 C6.0973585,2.21647192 6.09838882,2.21751412 6.0994218,2.21855401 C10.0128368,5.87867151 10.1097508,11.7204003 6.39515699,15.4890108 C6.15762038,15.7221411 6.07240494,16.0574757 6.1722346,16.3662413 C6.27206426,16.675007 6.5414195,16.909203 6.87686409,16.9788948 C7.21230868,17.0485865 7.56169437,16.9429398 7.79085212,16.7025243 C12.184605,12.244865 12.0641995,5.279365 7.44461511,0.955631304 C7.44356893,0.95473799 7.44252276,0.953844676 7.44147658,0.952504705 C7.15430101,0.681651892 6.85851827,0.438697276 6.56696778,0.212590562 C6.39612375,0.0762266132 6.17948359,0.000936041329 5.95528715,8.62254548e-06 Z" id="Shape"></path>
        </g>
        <g id="wifi" transform="translate(342.000000, 130.000000)" fill="#000000">
            <path d="M9.86615651,8.04423247 C9.47857706,8.04538092 9.13811131,8.29819342 9.02995926,8.66514992 C8.9218072,9.03210642 9.07183416,9.42544668 9.39843137,9.63120908 C9.62724937,9.77992449 9.84130493,9.95065761 10.0425198,10.1459362 C10.043437,10.1467974 10.0443105,10.1476587 10.0452277,10.1485199 C11.5811778,11.6583893 11.6542913,14.0219545 10.2835234,15.6191756 C10.0776676,15.8535606 10.0154789,16.17895 10.1206973,16.4711288 C10.2259157,16.7633076 10.4822997,16.9771749 10.7919766,17.0310884 C11.1016534,17.0850019 11.4168211,16.9706395 11.6171668,16.7316581 C13.5639324,14.4632476 13.4464442,11.0560004 11.2747041,8.92501437 C11.2737452,8.92415102 11.2727843,8.92328977 11.2718215,8.92243064 C10.9906798,8.6490587 10.6859967,8.40516715 10.3598251,8.19320195 C10.2142507,8.09563932 10.0421773,8.04371445 9.86615651,8.04423247 Z" id="Shape" transform="translate(10.995191, 12.544229) rotate(-120.000000) translate(-10.995191, -12.544229) "></path>
            <path d="M8.51130689,2.5134335 C8.11849502,2.52327194 7.77511355,2.77084658 7.65528726,3.13061518 C7.53546097,3.49038377 7.66539867,3.88365653 7.97921045,4.11100936 C8.22853247,4.29699403 8.46898314,4.49681095 8.68628511,4.70678661 C8.687483,4.70797436 8.68868433,4.70915888 8.6898891,4.71034018 C11.3758302,7.27671093 11.4613094,11.3559717 8.96771958,14.0212337 C8.74130634,14.2563769 8.66414998,14.5905124 8.76580085,14.8956686 C8.86745172,15.2008248 9.13215743,15.4297131 9.45853755,15.4946707 C9.78491767,15.5596284 10.1223945,15.4505893 10.3417168,15.2093146 C13.4792191,11.8558382 13.3631984,6.67469718 9.99619602,3.45382208 L9.99619602,3.45368882 C9.99499469,3.45235623 9.99370095,3.45146784 9.99245342,3.45013526 C9.70935556,3.17695056 9.41101007,2.93057307 9.1119715,2.70749808 C8.94176197,2.57674519 8.72897033,2.50801324 8.51116827,2.51343794 L8.51130689,2.5134335 Z" id="Shape" transform="translate(10.111216, 9.013140) rotate(-120.000000) translate(-10.111216, -9.013140) "></path>
            <path d="M6.81650308,-1.65191517 C6.41207482,-1.65357722 6.05076071,-1.41482106 5.91579295,-1.05672644 C5.78082519,-0.698631808 5.90172723,-0.299529926 6.21718636,-0.0618161956 C6.48039497,0.142301593 6.72957529,0.348281942 6.95754675,0.563503624 C6.95857443,0.564548134 6.95960476,0.565590336 6.96063773,0.566630223 C10.8740527,4.22674773 10.9709668,10.0684766 7.25637293,13.837087 C7.01883631,14.0702173 6.93362087,14.4055519 7.03345053,14.7143176 C7.13328019,15.0230832 7.40263543,15.2572792 7.73808002,15.326971 C8.07352461,15.3966627 8.4229103,15.291016 8.65206805,15.0506006 C13.0458209,10.5929412 12.9254155,3.62744121 8.30583104,-0.696292484 C8.30478487,-0.697185798 8.30373869,-0.698079112 8.30269251,-0.699419083 C8.01551695,-0.970271897 7.7197342,-1.21322651 7.42818371,-1.43933323 C7.25733968,-1.57569718 7.04069952,-1.65098775 6.81650308,-1.65191517 Z" id="Shape" transform="translate(8.861216, 6.848076) rotate(-120.000000) translate(-8.861216, -6.848076) "></path>
        </g>
        <path d="M319.107157,180.345236 C307.218277,121.702003 292.107092,87.6344948 273.773604,78.1427112 C263.8596,73.0099407 237.328755,74.4335939 225.553579,74.4335939 C216.05459,74.4335939 184.584017,73.8146738 180.866825,76.2042037 C164.455305,86.7540516 148.166364,121.467729 132,180.345236" id="Line" stroke="#000000" stroke-width="3" stroke-linecap="square"></path>
    </g>
</svg>